{
.appVersion = "1342";
DisplayStrings = (
"/venus.ss01",
"/alef-hb/zayin-hb/nun-hb !?/space/sheqel/alephsymbol/gimelsymbol/northWestArrowToCorner/blackstar/ballotBox/ballotBoxWithCheck/ballotBoxWithX/peace/yinyang/whiteSmilingFace/venus/mars/heartWhiteSuit/heartBlackSuit/maleAndFemaleSign/heavyAsterisk/nullControl/venus.ss01/mars.ss01/maleAndFemaleSign.ss01/venus.ss02/mars.ss02/maleAndFemaleSign.ss02",
X,
"/alef-hb/zayin-hb/nun-hb/gimelsymbol",
"/alef-hb/zayin-hb/nun-hb/space/tet-hb/space/tav-hb/space/finalmem-hb",
"/finalmem-hb",
"/tet-hb/finalmem-hb/tav-hb",
"/alef-hb/zayin-hb/space/tet-hb/space/finalmem-hb/space/tav-hb",
AMBMC,
"ACB/space FMX/space abc/space/heartBlackSuit/maleAndFemaleSign/heavyAsterisk/nullControl/venus.ss01",
"ABC/space FMX/space abc/space/alef-hb/nun-hb/zayin-hb/space/tet-hb/space/finalmem-hb/space/tav-hb/space \012/venus/mars/maleAndFemaleSign \012/venus.ss02/mars.ss02/maleAndFemaleSign.ss02 \012!?/space/sheqel/space/alephsymbol/gimelsymbol/northWestArrowToCorner/blackstar/ballotBox/ballotBoxWithCheck/ballotBoxWithX/peace/yinyang/whiteSmilingFace/space/heartWhiteSuit/heartBlackSuit/heavyAsterisk/nullControl/venus.ss01/mars.ss01/maleAndFemaleSign.ss01",
"/mercury/venus.ss02/mars.ss02/maleAndFemaleSign.ss02",
"/mercury"
);
copyright = "Copyright © 2020 by AlefAlefAlef. All rights reserved.";
customParameters = (
{
name = licenseURL;
value = "https://alefalefalef.co.il/eula/";
},
{
name = vendorID;
value = AAA;
},
{
name = Axes;
value = (
{
Name = Weight;
Tag = wght;
}
);
}
);
date = "2020-11-14 14:22:33 +0000";
designer = "Avraham Cornfeld";
designerURL = "https://alefalefalef.co.il/author/avraham/";
familyName = "Ivritacons v1 AlefAlefAlef";
featurePrefixes = (
{
code = "languagesystem DFLT dflt;\012\012languagesystem hebr dflt;\012\012languagesystem hebr IWR;";
name = Languagesystems;
}
);
features = (
{
automatic = 1;
code = "feature salt;\012feature ss01;\012feature ss02;\012";
name = aalt;
},
{
automatic = 1;

glyphs = (
{
color = 1;
glyphname = A;
lastChange = "2020-11-19 07:31:03 +0000";
layers = (
{
layerId = "C43C9FC1-AECF-4743-B430-3C79B4516925";
paths = (
{
closed = 1;
nodes = (
"563 389 OFFCURVE",
"611 408 OFFCURVE",
"654 408 CURVE SMOOTH",
"762 408 OFFCURVE",
"780 276 OFFCURVE",
"920 276 CURVE SMOOTH",
"964 276 OFFCURVE",
"983 301 OFFCURVE",
"983 325 CURVE SMOOTH",
"983 352 OFFCURVE",
"968 373 OFFCURVE",
"938 373 CURVE SMOOTH",
"926 373 OFFCURVE",
"911 367 OFFCURVE",
"904 356 CURVE",
"890 398 OFFCURVE",
"934 417 OFFCURVE",
"969 417 CURVE SMOOTH",
"1022 417 OFFCURVE",
"1063 368 OFFCURVE",
"1063 309 CURVE SMOOTH",
"1063 197 OFFCURVE",
"964 112 OFFCURVE",
"797 112 CURVE SMOOTH",
"667 112 OFFCURVE",
"577 154 OFFCURVE",
"539 240 CURVE",
"539 344 LINE"
);
},
{
closed = 1;
nodes = (
"561 240 LINE",
"523 154 OFFCURVE",
"433 112 OFFCURVE",
"303 112 CURVE SMOOTH",
"136 112 OFFCURVE",
"37 197 OFFCURVE",
"37 309 CURVE SMOOTH",
"37 368 OFFCURVE",
"79 417 OFFCURVE",
"131 417 CURVE SMOOTH",
"166 417 OFFCURVE",
"210 398 OFFCURVE",
"197 356 CURVE",
"189 367 OFFCURVE",
"174 373 OFFCURVE",
"162 373 CURVE SMOOTH",
"132 373 OFFCURVE",
"117 352 OFFCURVE",
"117 325 CURVE SMOOTH",
"117 301 OFFCURVE",
"136 276 OFFCURVE",
"180 276 CURVE SMOOTH",
"320 276 OFFCURVE",
"338 408 OFFCURVE",
"446 408 CURVE SMOOTH",
"489 408 OFFCURVE",
"537 389 OFFCURVE",
"561 344 CURVE"
);
}
);
width = 1100;
}
);
unicode = 0041;
},
{
color = 1;
glyphname = B;
lastChange = "2020-11-19 07:31:03 +0000";
layers = (
{
layerId = "C43C9FC1-AECF-4743-B430-3C79B4516925";
paths = (
{
closed = 1;
nodes = (
"614 479 OFFCURVE",
"571 452 OFFCURVE",
"549 446 CURVE",
"527 452 OFFCURVE",
"486 479 OFFCURVE",
"419 479 CURVE SMOOTH",
"290 479 OFFCURVE",
"225 338 OFFCURVE",
"66 338 CURVE",
"123 215 OFFCURVE",
"325 70 OFFCURVE",
"549 70 CURVE SMOOTH",
"775 70 OFFCURVE",
"977 215 OFFCURVE",
"1034 338 CURVE",
"875 338 OFFCURVE",
"809 479 OFFCURVE",
"681 479 CURVE SMOOTH"
);
},
{
closed = 1;
nodes = (
"407 231 OFFCURVE",
"316 276 OFFCURVE",
"231 316 CURVE",
"351 316 OFFCURVE",
"386 294 OFFCURVE",
"549 294 CURVE SMOOTH",
"714 294 OFFCURVE",
"749 316 OFFCURVE",
"869 316 CURVE",
"783 276 OFFCURVE",
"693 231 OFFCURVE",
"549 231 CURVE SMOOTH"
);
}
);
width = 1100;
}
);
rightMetricsKey = "=|";
unicode = 0042;
},
{
color = 1;
glyphname = C;
lastChange = "2020-11-19 07:31:03 +0000";
layers = (
{
layerId = "C43C9FC1-AECF-4743-B430-3C79B4516925";
paths = (
{
closed = 1;
nodes = (
"90 333 LINE",
"1010 333 LINE",
"1010 438 LINE",
"90 438 LINE"
);
},
{
closed = 1;
nodes = (
"90 133 LINE",
"1010 133 LINE",
"1010 238 LINE",
"90 238 LINE"
);
}
);
width = 1100;
},
{
associatedMasterId = "C43C9FC1-AECF-4743-B430-3C79B4516925";
layerId = "30A78B3A-EBB1-4960-B1B2-78DCC80A9B31";
name = "Nov 19 20, 09:21";
paths = (
{
closed = 1;
nodes = (
"619 264 OFFCURVE",
"573 245 OFFCURVE",
"549 241 CURVE",
"525 245 OFFCURVE",
"481 264 OFFCURVE",
"409 264 CURVE SMOOTH",
"269 264 OFFCURVE",
"199 178 OFFCURVE",
"27 178 CURVE",
"89 94 OFFCURVE",
"307 -15 OFFCURVE",
"549 -15 CURVE SMOOTH",
"793 -15 OFFCURVE",
"1011 94 OFFCURVE",
"1073 178 CURVE",
"901 178 OFFCURVE",
"830 264 OFFCURVE",
"691 264 CURVE SMOOTH"
);
},
{
closed = 1;
nodes = (
"427 95 OFFCURVE",
"349 122 OFFCURVE",
"277 149 CURVE",
"369 146 OFFCURVE",
"409 138 OFFCURVE",
"549 138 CURVE SMOOTH",
"691 138 OFFCURVE",
"731 146 OFFCURVE",
"823 149 CURVE",
"750 122 OFFCURVE",
"673 95 OFFCURVE",
"549 95 CURVE SMOOTH"
);
},
{
closed = 1;
nodes = (
"553 522 OFFCURVE",
"601 541 OFFCURVE",
"644 541 CURVE SMOOTH",
"752 541 OFFCURVE",
"770 425 OFFCURVE",
"910 425 CURVE SMOOTH",
"954 425 OFFCURVE",
"973 450 OFFCURVE",
"973 474 CURVE SMOOTH",
"973 501 OFFCURVE",
"958 522 OFFCURVE",
"928 522 CURVE SMOOTH",
"916 522 OFFCURVE",
"901 516 OFFCURVE",
"894 505 CURVE",
"880 547 OFFCURVE",
"924 566 OFFCURVE",
"959 566 CURVE SMOOTH",
"1012 566 OFFCURVE",
"1053 517 OFFCURVE",
"1053 458 CURVE SMOOTH",
"1053 367 OFFCURVE",
"967 311 OFFCURVE",
"827 311 CURVE SMOOTH",
"697 311 OFFCURVE",
"567 346 OFFCURVE",
"529 444 CURVE",
"529 477 LINE"
);
},
{
closed = 1;
nodes = (
"571 444 LINE",
"533 348 OFFCURVE",
"403 311 OFFCURVE",
"273 311 CURVE SMOOTH",
"133 311 OFFCURVE",
"47 367 OFFCURVE",
"47 458 CURVE SMOOTH",
"47 517 OFFCURVE",
"89 566 OFFCURVE",
"141 566 CURVE SMOOTH",
"176 566 OFFCURVE",
"220 547 OFFCURVE",
"207 505 CURVE",
"199 516 OFFCURVE",
"184 522 OFFCURVE",
"172 522 CURVE SMOOTH",
"142 522 OFFCURVE",
"127 501 OFFCURVE",
"127 474 CURVE SMOOTH",
"127 450 OFFCURVE",
"146 425 OFFCURVE",
"190 425 CURVE SMOOTH",
"330 425 OFFCURVE",
"348 541 OFFCURVE",
"456 541 CURVE SMOOTH",
"499 541 OFFCURVE",
"547 522 OFFCURVE",
"571 477 CURVE"
);
}
);
width = 1100;
}
);
unicode = 0043;
},
{
color = 8;
glyphname = F;
lastChange = "2020-11-15 15:21:54 +0000";
layers = (
{
layerId = "C43C9FC1-AECF-4743-B430-3C79B4516925";
paths = (
{
closed = 1;
nodes = (
"475 520 LINE",
"475 600 LINE",
"57 600 LINE",
"57 0 LINE",
"153 0 LINE",
"153 520 LINE"
);
},
{
closed = 1;
nodes = (
"129 258 LINE",
"450 258 LINE",
"450 338 LINE",
"129 338 LINE"
);
}
);
width = 519;
},
{
anchors = (
{
name = bottom;
position = "{144, 0}";
},
{
name = top;
position = "{259, 600}";
}
);
associatedMasterId = "C43C9FC1-AECF-4743-B430-3C79B4516925";
layerId = "91A418FC-6074-4685-A77A-E8BD1CFCC38C";
name = Bold;
paths = (
{
closed = 1;
nodes = (
"473 455 LINE",
"473 600 LINE",
"59 600 LINE",
"59 0 LINE",
"228 0 LINE",
"228 455 LINE"
);
},
{
closed = 1;
nodes = (
"184 218 LINE",
"447 218 LINE",
"447 361 LINE",
"184 361 LINE"
);
}
);
width = 505;
},
{
anchors = (
{
name = bottom;
position = "{163, 0}";
},
{
name = top;
position = "{261, 600}";
}
);
associatedMasterId = "C43C9FC1-AECF-4743-B430-3C79B4516925";
layerId = "8688D68E-D8DB-494B-A244-E1EA0CD36737";
name = Black;
paths = (
{
closed = 1;
nodes = (
"500 415 LINE",
"500 600 LINE",
"46 600 LINE",
"46 0 LINE",
"266 0 LINE",
"266 415 LINE"
);
},
{
closed = 1;
nodes = (
"237 186 LINE",
"474 186 LINE",
"474 356 LINE",
"237 356 LINE"
);
}
);
width = 531;
}
);
leftKerningGroup = h.sc;
leftMetricsKey = h.sc;
rightKerningGroup = f.sc;
unicode = 0046;
},
{
color = 8;
glyphname = M;
lastChange = "2020-11-15 15:22:51 +0000";
layers = (
{
layerId = "C43C9FC1-AECF-4743-B430-3C79B4516925";
paths = (
{
closed = 1;
nodes = (
"396 235 LINE",
"196 600 LINE",
"109 600 LINE",
"109 0 LINE",
"201 0 LINE",
"201 424 LINE",
"362 126 LINE",
"430 126 LINE",
"593 424 LINE",
"593 0 LINE",
"685 0 LINE",
"685 600 LINE",
"598 600 LINE"
);
}
);
width = 794;
},
{
anchors = (
{
name = bottom;
position = "{399, 0}";
},
{
name = top;
position = "{399, 600}";
}
);
associatedMasterId = "C43C9FC1-AECF-4743-B430-3C79B4516925";
layerId = "91A418FC-6074-4685-A77A-E8BD1CFCC38C";
name = Bold;
paths = (
{
closed = 1;
nodes = (
"399 326 LINE",
"209 600 LINE",
"59 600 LINE",
"59 0 LINE",
"222 0 LINE",
"222 320 LINE",
"382 94 LINE",
"416 94 LINE",
"575 320 LINE",
"575 0 LINE",
"739 0 LINE",
"739 600 LINE",
"588 600 LINE"
);
}
);
width = 798;
},
{
anchors = (
{
name = bottom;
position = "{424, 0}";
},
{
name = top;
position = "{424, 600}";
}
);
associatedMasterId = "C43C9FC1-AECF-4743-B430-3C79B4516925";
layerId = "8688D68E-D8DB-494B-A244-E1EA0CD36737";
name = Black;
paths = (
{
closed = 1;
nodes = (
"423 363 LINE",
"247 600 LINE",
"46 600 LINE",
"46 0 LINE",
"260 0 LINE",
"260 274 LINE",
"406 71 LINE",
"440 71 LINE",
"587 274 LINE",
"588 0 LINE",
"802 0 LINE",
"802 600 LINE",
"601 600 LINE"
);
}
);
width = 848;
}
);
leftKerningGroup = h.sc;
leftMetricsKey = h.sc;
rightKerningGroup = h.sc;
rightMetricsKey = h.sc;
unicode = 004D;
},
{
color = 8;
glyphname = X;
lastChange = "2020-11-15 15:29:07 +0000";
layers = (
{
layerId = "C43C9FC1-AECF-4743-B430-3C79B4516925";
paths = (
{
closed = 1;
nodes = (
"570 2 LINE",
"347 311 LINE",
"555 598 LINE",
"555 600 LINE",
"450 600 LINE",
"294 371 LINE",
"138 600 LINE",
"33 600 LINE",
"33 598 LINE",
"241 311 LINE",
"18 2 LINE",
"18 0 LINE",
"124 0 LINE",
"294 251 LINE",
"464 0 LINE",
"570 0 LINE"
);
}
);
width = 588;
},
{
anchors = (
{
name = bottom;
position = "{308, 0}";
},
{
name = top;
position = "{308, 600}";
}
);
associatedMasterId = "C43C9FC1-AECF-4743-B430-3C79B4516925";
layerId = "91A418FC-6074-4685-A77A-E8BD1CFCC38C";
name = Bold;
paths = (
{
closed = 1;
nodes = (
"623 5 LINE",
"410 310 LINE",
"609 595 LINE",
"609 600 LINE",
"416 600 LINE",
"308 428 LINE",
"200 600 LINE",
"7 600 LINE",
"7 595 LINE",
"206 310 LINE",
"-5 5 LINE",
"-7 0 LINE",
"186 0 LINE",
"308 193 LINE",
"430 0 LINE",
"621 0 LINE"
);
}
);
width = 616;
},
{
anchors = (
{
name = bottom;
position = "{331, 0}";
},
{
name = top;
position = "{331, 600}";
}
);
associatedMasterId = "C43C9FC1-AECF-4743-B430-3C79B4516925";
layerId = "8688D68E-D8DB-494B-A244-E1EA0CD36737";
name = Black;
paths = (
{
closed = 1;
nodes = (
"670 10 LINE",
"479 310 LINE",
"657 590 LINE",
"657 600 LINE",
"409 600 LINE",
"332 455 LINE",
"254 600 LINE",
"7 600 LINE",
"7 590 LINE",
"184 310 LINE",
"-7 10 LINE",
"-7 0 LINE",
"240 0 LINE",
"332 166 LINE",
"423 0 LINE",
"670 0 LINE"
);
}
);
width = 663;
}
);
leftKerningGroup = x.sc;
rightKerningGroup = x.sc;
rightMetricsKey = "=|";
unicode = 0058;
},
{
color = 0;
glyphname = a;
lastChange = "2020-11-19 07:31:06 +0000";
layers = (
{
layerId = "C43C9FC1-AECF-4743-B430-3C79B4516925";
paths = (
{
closed = 1;
nodes = (
"238 574 OFFCURVE",
"202 606 OFFCURVE",
"202 651 CURVE SMOOTH",
"202 693 OFFCURVE",
"237 728 OFFCURVE",
"279 728 CURVE SMOOTH",
"321 728 OFFCURVE",
"356 693 OFFCURVE",
"356 651 CURVE SMOOTH",
"356 609 OFFCURVE",
"321 574 OFFCURVE",
"279 574 CURVE SMOOTH"
);
},
{
closed = 1;
nodes = (
"220 547 LINE SMOOTH",
"183 547 OFFCURVE",
"149 532 OFFCURVE",
"135 489 CURVE SMOOTH",
"77 320 LINE SMOOTH",
"70 297 OFFCURVE",
"80 278 OFFCURVE",
"98 273 CURVE SMOOTH",
"116 267 OFFCURVE",
"134 278 OFFCURVE",
"142 299 CURVE SMOOTH",
"192 441 LINE SMOOTH",
"194 446 OFFCURVE",
"198 449 OFFCURVE",
"202 449 CURVE SMOOTH",
"208 449 OFFCURVE",
"210 443 OFFCURVE",
"207 433 CURVE SMOOTH",
"111 145 LINE",
"192 145 LINE",
"192 -54 LINE SMOOTH",
"192 -78 OFFCURVE",
"206 -97 OFFCURVE",
"230 -97 CURVE SMOOTH",
"254 -97 OFFCURVE",
"268 -78 OFFCURVE",
"268 -54 CURVE SMOOTH",
"268 547 LINE"
);
},
{
closed = 1;
nodes = (
"247 145 LINE",
"332 145 LINE",
"332 547 LINE",
"247 547 LINE"
);
},
{
closed = 1;
nodes = (
"290 -54 LINE SMOOTH",
"290 -78 OFFCURVE",
"304 -97 OFFCURVE",
"328 -97 CURVE SMOOTH",
"352 -97 OFFCURVE",
"366 -78 OFFCURVE",
"366 -54 CURVE SMOOTH",
"366 145 LINE",
"447 145 LINE",
"351 433 LINE SMOOTH",
"348 443 OFFCURVE",
"350 449 OFFCURVE",
"356 449 CURVE SMOOTH",
"360 449 OFFCURVE",
"364 446 OFFCURVE",
"366 441 CURVE SMOOTH",
"416 299 LINE SMOOTH",
"424 278 OFFCURVE",
"442 267 OFFCURVE",
"460 273 CURVE SMOOTH",
"478 278 OFFCURVE",
"488 297 OFFCURVE",
"481 320 CURVE SMOOTH",
"423 489 LINE SMOOTH",
"409 532 OFFCURVE",
"375 547 OFFCURVE",
"338 547 CURVE SMOOTH",
"290 547 LINE"
);
}
);
width = 600;
}
);
unicode = 0061;
},
{
color = 0;
glyphname = b;
lastChange = "2020-11-19 07:31:06 +0000";
layers = (
{
layerId = "C43C9FC1-AECF-4743-B430-3C79B4516925";
paths = (
{
closed = 1;
nodes = (
"198 547 LINE SMOOTH",
"140 547 OFFCURVE",
"98 505 OFFCURVE",
"98 447 CURVE SMOOTH",
"98 270 LINE SMOOTH",
"98 246 OFFCURVE",
"115 227 OFFCURVE",
"136 227 CURVE SMOOTH",
"158 227 OFFCURVE",
"174 246 OFFCURVE",
"174 270 CURVE SMOOTH",
"174 422 LINE SMOOTH",
"174 429 OFFCURVE",
"179 434 OFFCURVE",
"184 434 CURVE SMOOTH",
"188 434 OFFCURVE",
"192 429 OFFCURVE",
"192 422 CURVE SMOOTH",
"192 -54 LINE SMOOTH",
"192 -78 OFFCURVE",
"206 -97 OFFCURVE",
"230 -97 CURVE SMOOTH",
"254 -97 OFFCURVE",
"268 -78 OFFCURVE",
"268 -54 CURVE SMOOTH",
"268 547 LINE"
);
},
{
closed = 1;
nodes = (
"290 -54 LINE SMOOTH",
"290 -78 OFFCURVE",
"304 -97 OFFCURVE",
"328 -97 CURVE SMOOTH",
"352 -97 OFFCURVE",
"366 -78 OFFCURVE",
"366 -54 CURVE SMOOTH",
"366 422 LINE SMOOTH",
"366 429 OFFCURVE",
"370 434 OFFCURVE",
"374 434 CURVE SMOOTH",
"379 434 OFFCURVE",
"384 429 OFFCURVE",
"384 422 CURVE SMOOTH",
"384 270 LINE SMOOTH",
"384 246 OFFCURVE",
"400 227 OFFCURVE",
"422 227 CURVE SMOOTH",
"443 227 OFFCURVE",
"460 246 OFFCURVE",
"460 270 CURVE SMOOTH",
"460 447 LINE SMOOTH",
"460 505 OFFCURVE",
"418 547 OFFCURVE",
"360 547 CURVE SMOOTH",
"290 547 LINE"
);
},
{
closed = 1;
nodes = (
"237 145 LINE",
"323 145 LINE",
"323 547 LINE",
"237 547 LINE"
);
},
{
closed = 1;
nodes = (
"238 574 OFFCURVE",
"202 606 OFFCURVE",
"202 651 CURVE SMOOTH",
"202 693 OFFCURVE",
"237 728 OFFCURVE",
"279 728 CURVE SMOOTH",
"321 728 OFFCURVE",
"356 693 OFFCURVE",
"356 651 CURVE SMOOTH",
"356 609 OFFCURVE",
"321 574 OFFCURVE",
"279 574 CURVE SMOOTH"
);
}
);
width = 600;
}
);
unicode = 0062;
},
{
color = 0;
glyphname = c;
lastChange = "2020-11-19 07:31:06 +0000";
layers = (
{
layerId = "C43C9FC1-AECF-4743-B430-3C79B4516925";
paths = (
{
closed = 1;
nodes = (
"289 -54 LINE SMOOTH",
"289 -78 OFFCURVE",
"303 -97 OFFCURVE",
"327 -97 CURVE SMOOTH",
"351 -97 OFFCURVE",
"365 -78 OFFCURVE",
"365 -54 CURVE SMOOTH",
"365 422 LINE SMOOTH",
"365 429 OFFCURVE",
"369 434 OFFCURVE",
"373 434 CURVE SMOOTH",
"378 434 OFFCURVE",
"383 429 OFFCURVE",
"383 422 CURVE SMOOTH",
"383 270 LINE SMOOTH",
"383 246 OFFCURVE",
"399 227 OFFCURVE",
"421 227 CURVE SMOOTH",
"442 227 OFFCURVE",
"459 246 OFFCURVE",
"459 270 CURVE SMOOTH",
"459 447 LINE SMOOTH",
"459 505 OFFCURVE",
"417 547 OFFCURVE",
"360 547 CURVE SMOOTH",
"289 547 LINE"
);
},
{
closed = 1;
nodes = (
"219 547 LINE SMOOTH",
"182 547 OFFCURVE",
"148 532 OFFCURVE",
"134 489 CURVE SMOOTH",
"76 320 LINE SMOOTH",
"69 297 OFFCURVE",
"79 278 OFFCURVE",
"97 273 CURVE SMOOTH",
"115 267 OFFCURVE",
"134 278 OFFCURVE",
"141 299 CURVE SMOOTH",
"191 441 LINE SMOOTH",
"193 446 OFFCURVE",
"197 449 OFFCURVE",
"201 449 CURVE SMOOTH",
"207 449 OFFCURVE",
"209 443 OFFCURVE",
"206 433 CURVE SMOOTH",
"110 145 LINE",
"191 145 LINE",
"191 -54 LINE SMOOTH",
"191 -78 OFFCURVE",
"205 -97 OFFCURVE",
"229 -97 CURVE SMOOTH",
"253 -97 OFFCURVE",
"267 -78 OFFCURVE",
"267 -54 CURVE SMOOTH",
"267 547 LINE"
);
},
{
closed = 1;
nodes = (
"237 574 OFFCURVE",
"201 606 OFFCURVE",
"201 651 CURVE SMOOTH",
"201 693 OFFCURVE",
"236 728 OFFCURVE",
"278 728 CURVE SMOOTH",
"320 728 OFFCURVE",
"355 693 OFFCURVE",
"355 651 CURVE SMOOTH",
"355 609 OFFCURVE",
"320 574 OFFCURVE",
"278 574 CURVE SMOOTH"
);
}
);
width = 600;
}
);
unicode = 0063;
},
{
color = 6;
glyphname = "alef-hb";
lastChange = "2020-11-19 07:31:11 +0000";
layers = (
{
anchors = (
{
name = bottom;
position = "{348, 0}";
},
{
name = center;
position = "{410, 496}";
},
{
name = top;
position = "{355, 600}";
},
{
name = topleft;
position = "{74, 600}";
}
);
layerId = "C43C9FC1-AECF-4743-B430-3C79B4516925";
paths = (
{
closed = 1;
nodes = (
"639 4 LINE",
"160 600 LINE",
"55 600 LINE",
"55 596 LINE",
"534 0 LINE",
"639 0 LINE"
);
},
{
closed = 1;
nodes = (
"448 186 LINE",
"576 236 OFFCURVE",
"644 337 OFFCURVE",
"638 600 CURVE",
"544 600 LINE",
"549 374 OFFCURVE",
"500 287 OFFCURVE",
"402 249 CURVE"
);
},
{
closed = 1;
nodes = (
"246 414 LINE",
"117 364 OFFCURVE",
"50 263 OFFCURVE",
"56 0 CURVE",
"150 0 LINE",
"144 226 OFFCURVE",
"193 313 OFFCURVE",
"291 351 CURVE"
);
}
);
width = 699;
}
);
leftKerningGroup = alef;
rightKerningGroup = alef;
unicode = 05D0;
},
{
color = 6;
glyphname = "zayin-hb";
lastChange = "2020-11-19 07:31:11 +0000";
layers = (
{
anchors = (
{
name = bottom;
position = "{262, 0}";
},
{
name = center;
position = "{40, 410}";
},
{
name = top;
position = "{217, 600}";
},
{
name = topleft;
position = "{46, 600}";
}
);
layerId = "C43C9FC1-AECF-4743-B430-3C79B4516925";
paths = (
{
closed = 1;
nodes = (
"398 600 LINE",
"46 600 LINE",
"46 520 LINE",
"295 520 LINE",
"272 528 LINE",
"98 495 OFFCURVE",
"86 307 OFFCURVE",
"194 0 CURVE",
"293 0 LINE",
"154 388 OFFCURVE",
"206 520 OFFCURVE",
"398 520 CURVE"
);
}
);
width = 431;
}
);
leftKerningGroup = dalet;
rightKerningGroup = zayin;
unicode = 05D6;
},
{
color = 4;
glyphname = "tet-hb";
lastChange = "2020-11-19 07:31:16 +0000";
layers = (
{
layerId = "C43C9FC1-AECF-4743-B430-3C79B4516925";
paths = (
{
closed = 1;
nodes = (
"799 414 LINE",
"799 600 LINE",
"705 600 LINE",
"705 396 LINE"
);
},
{
closed = 1;
nodes = (
"78 322 LINE",
"587 322 LINE",
"587 484 LINE SMOOTH",
"587 564 OFFCURVE",
"555 600 OFFCURVE",
"478 600 CURVE SMOOTH",
"78 600 LINE"
);
},
{
closed = 1;
nodes = (
"172 520 LINE",
"441 520 LINE SMOOTH",
"479 520 OFFCURVE",
"493 506 OFFCURVE",
"493 468 CURVE SMOOTH",
"493 402 LINE",
"172 402 LINE"
);
},
{
closed = 1;
nodes = (
"799 0 LINE",
"799 258 LINE",
"705 258 LINE",
"705 0 LINE"
);
},
{
closed = 1;
nodes = (
"154 80 LINE",
"68 80 LINE",
"68 0 LINE",
"248 0 LINE",
"248 157 LINE",
"441 157 LINE SMOOTH",
"481 157 OFFCURVE",
"493 139 OFFCURVE",
"493 92 CURVE SMOOTH",
"493 0 LINE",
"587 0 LINE",
"587 129 LINE SMOOTH",
"587 208 OFFCURVE",
"561 237 OFFCURVE",
"478 237 CURVE SMOOTH",
"154 237 LINE"
);
}
);
width = 868;
}
);
leftKerningGroup = vav;
rightKerningGroup = vav;
unicode = 05D8;
},
{
color = 4;
glyphname = "finalmem-hb";
lastChange = "2020-11-19 07:31:16 +0000";
layers = (
{
layerId = "C43C9FC1-AECF-4743-B430-3C79B4516925";
paths = (
{
closed = 1;
nodes = (
"772 294 LINE",
"772 600 LINE",
"678 600 LINE",
"678 276 LINE"
);
},
{
closed = 1;
nodes = (
"82 0 LINE",
"538 0 LINE",
"538 424 LINE SMOOTH",
"538 559 OFFCURVE",
"486 600 OFFCURVE",
"387 600 CURVE SMOOTH",
"82 600 LINE"
);
},
{
closed = 1;
nodes = (
"176 520 LINE",
"352 520 LINE SMOOTH",
"416 520 OFFCURVE",
"444 498 OFFCURVE",
"444 410 CURVE SMOOTH",
"444 80 LINE",
"176 80 LINE"
);
}
);
width = 868;
}
);
leftKerningGroup = vav;
rightKerningGroup = vav;
unicode = 05DD;
},
{
color = 6;
glyphname = "nun-hb";
lastChange = "2020-11-19 07:31:11 +0000";
layers = (
{
anchors = (
{
name = bottom;
position = "{186, 0}";
},
{
name = center;
position = "{104, 302}";
},
{
name = top;
position = "{187, 600}";
},
{
name = topleft;
position = "{75, 600}";
}
);
layerId = "C43C9FC1-AECF-4743-B430-3C79B4516925";
paths = (
{
closed = 1;
nodes = (
"316 0 LINE",
"316 421 LINE SMOOTH",
"316 540 OFFCURVE",
"270 600 OFFCURVE",
"158 600 CURVE SMOOTH",
"75 600 LINE",
"75 520 LINE",
"131 520 LINE SMOOTH",
"197 520 OFFCURVE",
"222 480 OFFCURVE",
"222 397 CURVE SMOOTH",
"222 80 LINE",
"53 80 LINE",
"53 0 LINE"
);
}
);
width = 392;
}
);
leftKerningGroup = nun;
rightKerningGroup = nun;
unicode = 05E0;
},
{
color = 4;
glyphname = "tav-hb";
lastChange = "2020-11-19 07:31:16 +0000";
layers = (
{
layerId = "C43C9FC1-AECF-4743-B430-3C79B4516925";
paths = (
{
closed = 1;
nodes = (
"61 600 LINE",
"61 520 LINE",
"143 520 LINE",
"143 80 LINE",
"45 80 LINE",
"45 0 LINE",
"237 0 LINE",
"237 520 LINE",
"342 520 LINE SMOOTH",
"413 520 OFFCURVE",
"441 491 OFFCURVE",
"441 380 CURVE SMOOTH",
"441 0 LINE",
"535 0 LINE",
"535 397 LINE SMOOTH",
"535 538 OFFCURVE",
"501 600 OFFCURVE",
"359 600 CURVE SMOOTH"
);
},
{
closed = 1;
nodes = (
"683 0 LINE",
"777 0 LINE",
"777 600 LINE",
"683 600 LINE"
);
}
);
width = 868;
}
);
leftKerningGroup = vav;
rightKerningGroup = vav;
unicode = 05EA;
},
{
glyphname = exclam;
lastChange = "2020-11-15 15:25:22 +0000";
layers = (
{
layerId = "C43C9FC1-AECF-4743-B430-3C79B4516925";
paths = (
{
closed = 1;
nodes = (
"208 628 LINE",
"99 628 LINE",
"111 213 LINE",
"195 213 LINE"
);
},
{
closed = 1;
nodes = (
"192 -6 OFFCURVE",
"222 25 OFFCURVE",
"222 63 CURVE SMOOTH",
"222 102 OFFCURVE",
"192 133 OFFCURVE",
"153 133 CURVE SMOOTH",
"115 133 OFFCURVE",
"84 102 OFFCURVE",
"84 63 CURVE SMOOTH",
"84 25 OFFCURVE",
"115 -6 OFFCURVE",
"153 -6 CURVE SMOOTH"
);
}
);
width = 306;
}
);
leftKerningGroup = exclam;
rightKerningGroup = exclam;
rightMetricsKey = "=|";
unicode = 0021;
},
{
glyphname = question;
lastChange = "2020-11-15 15:25:06 +0000";
layers = (
{
layerId = "C43C9FC1-AECF-4743-B430-3C79B4516925";
paths = (
{
closed = 1;
nodes = (
"312 186 LINE",
"308 321 OFFCURVE",
"513 287 OFFCURVE",
"513 447 CURVE SMOOTH",
"513 563 OFFCURVE",
"433 627 OFFCURVE",
"303 629 CURVE SMOOTH",
"169 631 OFFCURVE",
"74 558 OFFCURVE",
"50 432 CURVE",
"130 412 LINE",
"152 505 OFFCURVE",
"215 552 OFFCURVE",
"299 552 CURVE SMOOTH",
"379 552 OFFCURVE",
"425 515 OFFCURVE",
"425 452 CURVE SMOOTH",
"425 330 OFFCURVE",
"221 372 OFFCURVE",
"227 186 CURVE"
);
},
{
closed = 1;
nodes = (
"305 -5 OFFCURVE",
"333 23 OFFCURVE",
"333 58 CURVE SMOOTH",
"333 92 OFFCURVE",
"305 120 OFFCURVE",
"270 120 CURVE SMOOTH",
"235 120 OFFCURVE",
"207 92 OFFCURVE",
"207 58 CURVE SMOOTH",
"207 23 OFFCURVE",
"235 -5 OFFCURVE",
"270 -5 CURVE SMOOTH"
);
}
);
width = 577;
}
);
leftKerningGroup = question;
rightKerningGroup = question;
unicode = 003F;
},
{
glyphname = sheqel;
lastChange = "2020-11-14 14:24:35 +0000";
layers = (
{
layerId = "C43C9FC1-AECF-4743-B430-3C79B4516925";
paths = (
{
closed = 1;
nodes = (
"642 0 LINE SMOOTH",
"746 0 OFFCURVE",
"780 52 OFFCURVE",
"780 161 CURVE SMOOTH",
"780 600 LINE",
"694 600 LINE",
"694 179 LINE SMOOTH",
"694 103 OFFCURVE",
"677 70 OFFCURVE",
"606 70 CURVE SMOOTH",
"382 70 LINE",
"382 426 LINE",
"301 426 LINE",
"301 0 LINE"
);
},
{
closed = 1;
nodes = (
"235 600 LINE SMOOTH",
"131 600 OFFCURVE",
"96 548 OFFCURVE",
"96 439 CURVE SMOOTH",
"96 0 LINE",
"183 0 LINE",
"183 421 LINE SMOOTH",
"183 497 OFFCURVE",
"199 530 OFFCURVE",
"271 530 CURVE SMOOTH",
"494 530 LINE",
"494 174 LINE",
"575 174 LINE",
"575 600 LINE"
);
}
);
width = 877;
}
);
note = newsheqelsign;
unicode = 20AA;
},
{
glyphname = alephsymbol;
layers = (
{
layerId = "C43C9FC1-AECF-4743-B430-3C79B4516925";
paths = (
{
closed = 1;
nodes = (
"678 489 LINE",
"363 674 LINE",
"47 489 LINE",
"363 307 LINE"
);
},
{
closed = 1;
nodes = (
"231 85 OFFCURVE",
"176 193 OFFCURVE",
"154 239 CURVE",
"134 249 OFFCURVE",
"132 236 OFFCURVE",
"136 217 CURVE SMOOTH",
"142 189 OFFCURVE",
"162 143 OFFCURVE",
"173 112 CURVE",
"173 109 OFFCURVE",
"169 98 OFFCURVE",
"166 91 CURVE",
"121 118 LINE SMOOTH",
"112 124 OFFCURVE",
"105 119 OFFCURVE",
"105 115 CURVE",
"83 133 LINE",
"90 159 LINE",
"91 159 OFFCURVE",
"95 157 OFFCURVE",
"104 152 CURVE SMOOTH",
"120 144 LINE",
"121 147 LINE",
"113 170 OFFCURVE",
"103 207 OFFCURVE",
"101 222 CURVE SMOOTH",
"96 260 OFFCURVE",
"115 274 OFFCURVE",
"141 265 CURVE",
"127 289 OFFCURVE",
"101 328 OFFCURVE",
"86 350 CURVE SMOOTH",
"78 362 OFFCURVE",
"111 370 OFFCURVE",
"126 362 CURVE",
"136 341 OFFCURVE",
"177 237 OFFCURVE",
"218 166 CURVE",
"240 176 OFFCURVE",
"235 224 OFFCURVE",
"233 256 CURVE",
"205 280 LINE",
"205 311 LINE",
"234 300 LINE",
"237 286 OFFCURVE",
"247 268 OFFCURVE",
"259 261 CURVE SMOOTH",
"302 237 LINE",
"306 230 LINE",
"300 215 LINE",
"286 224 LINE",
"286 216 OFFCURVE",
"282 152 OFFCURVE",
"235 132 CURVE",
"251 104 OFFCURVE",
"281 63 OFFCURVE",
"299 40 CURVE",
"300 33 LINE",
"266 16 LINE"
);
},
{
closed = 1;
nodes = (
"353 289 LINE",
"37 472 LINE",
"38 110 LINE",
"353 -73 LINE"
);
},
{
closed = 1;
nodes = (
"428 50 LINE",
"428 51 OFFCURVE",
"433 55 OFFCURVE",
"442 60 CURVE SMOOTH",
"457 69 LINE",
"458 75 LINE",
"450 88 OFFCURVE",
"439 111 OFFCURVE",
"439 128 CURVE SMOOTH",
"439 163 OFFCURVE",
"451 195 OFFCURVE",
"477 216 CURVE",
"464 224 OFFCURVE",
"439 236 OFFCURVE",
"424 243 CURVE SMOOTH",
"404 252 OFFCURVE",
"450 292 OFFCURVE",
"465 301 CURVE",
"472 288 OFFCURVE",
"515 232 OFFCURVE",
"553 203 CURVE",
"576 245 OFFCURVE",
"571 282 OFFCURVE",
"568 314 CURVE",
"540 307 LINE",
"540 338 LINE",
"570 360 LINE",
"573 350 OFFCURVE",
"581 344 OFFCURVE",
"593 350 CURVE SMOOTH",
"635 373 LINE",
"639 370 LINE",
"634 350 LINE",
"620 342 LINE",
"620 332 OFFCURVE",
"616 264 OFFCURVE",
"572 190 CURVE",
"587 180 OFFCURVE",
"616 172 OFFCURVE",
"633 170 CURVE",
"633 164 LINE",
"600 108 LINE",
"566 137 OFFCURVE",
"513 184 OFFCURVE",
"491 207 CURVE",
"471 192 OFFCURVE",
"470 176 OFFCURVE",
"473 163 CURVE SMOOTH",
"478 140 OFFCURVE",
"497 114 OFFCURVE",
"509 98 CURVE",
"509 93 OFFCURVE",
"504 78 OFFCURVE",
"501 69 CURVE",
"458 42 LINE SMOOTH",
"448 36 OFFCURVE",
"445 27 OFFCURVE",
"444 23 CURVE",
"422 16 LINE"
);
},
{
closed = 1;
nodes = (
"687 110 LINE",
"688 472 LINE",
"373 290 LINE",
"373 -73 LINE"
);
},
{
closed = 1;
nodes = (
"316 380 LINE SMOOTH",
"272 381 OFFCURVE",
"337 493 OFFCURVE",
"345 522 CURVE",
"324 531 OFFCURVE",
"311 524 OFFCURVE",
"300 517 CURVE SMOOTH",
"278 503 OFFCURVE",
"272 469 OFFCURVE",
"262 453 CURVE",
"258 450 OFFCURVE",
"244 445 OFFCURVE",
"234 443 CURVE",
"191 468 LINE SMOOTH",
"179 475 OFFCURVE",
"171 471 OFFCURVE",
"164 471 CURVE",
"150 487 LINE",
"180 497 LINE",
"181 497 OFFCURVE",
"185 495 OFFCURVE",
"196 490 CURVE SMOOTH",
"213 482 LINE",
"215 483 LINE",
"224 497 OFFCURVE",
"239 518 OFFCURVE",
"252 528 CURVE SMOOTH",
"279 549 OFFCURVE",
"318 550 OFFCURVE",
"348 540 CURVE",
"348 559 OFFCURVE",
"343 590 OFFCURVE",
"343 598 CURVE",
"349 600 OFFCURVE",
"393 606 OFFCURVE",
"414 595 CURVE",
"408 581 OFFCURVE",
"380 517 OFFCURVE",
"375 468 CURVE",
"421 468 OFFCURVE",
"453 492 OFFCURVE",
"478 511 CURVE",
"457 530 LINE",
"485 548 LINE",
"519 533 LINE",
"513 524 OFFCURVE",
"510 515 OFFCURVE",
"521 509 CURVE SMOOTH",
"564 485 LINE",
"563 479 LINE",
"543 471 LINE",
"529 481 LINE",
"520 477 OFFCURVE",
"459 444 OFFCURVE",
"373 445 CURVE",
"373 429 OFFCURVE",
"380 400 OFFCURVE",
"386 383 CURVE",
"382 378 LINE"
);
}
);
width = 725;
}
);
rightMetricsKey = "=|";
unicode = 2135;
},
{
glyphname = gimelsymbol;
layers = (
{
layerId = "C43C9FC1-AECF-4743-B430-3C79B4516925";
paths = (
{
closed = 1;
nodes = (
"353 305 OFFCURVE",
"326 332 OFFCURVE",
"326 363 CURVE",
"326 393 OFFCURVE",
"353 419 OFFCURVE",
"383 419 CURVE",
"413 419 OFFCURVE",
"440 393 OFFCURVE",
"440 363 CURVE",
"440 332 OFFCURVE",
"413 305 OFFCURVE",
"383 305 CURVE"
);
},
{
closed = 1;
nodes = (
"339 188 OFFCURVE",
"428 187 OFFCURVE",
"552 250 CURVE",
"522 315 LINE",
"415 262 OFFCURVE",
"352 262 OFFCURVE",
"245 315 CURVE",
"215 250 LINE"
);
},
{
closed = 1;
nodes = (
"300 592 OFFCURVE",
"233 614 OFFCURVE",
"112 640 CURVE",
"93 565 LINE",
"152 554 OFFCURVE",
"225 534 OFFCURVE",
"327 502 CURVE",
"508 443 OFFCURVE",
"604 348 OFFCURVE",
"604 227 CURVE SMOOTH",
"604 125 OFFCURVE",
"511 37 OFFCURVE",
"383 37 CURVE SMOOTH",
"256 37 OFFCURVE",
"163 125 OFFCURVE",
"163 227 CURVE SMOOTH",
"163 348 OFFCURVE",
"258 443 OFFCURVE",
"440 502 CURVE",
"541 534 OFFCURVE",
"615 554 OFFCURVE",
"674 565 CURVE",
"654 640 LINE",
"534 614 OFFCURVE",
"466 592 OFFCURVE",
"329 537 CURVE",
"148 452 OFFCURVE",
"87 341 OFFCURVE",
"87 224 CURVE SMOOTH",
"87 95 OFFCURVE",
"200 -38 OFFCURVE",
"383 -38 CURVE SMOOTH",
"566 -38 OFFCURVE",
"680 95 OFFCURVE",
"680 224 CURVE SMOOTH",
"680 341 OFFCURVE",
"618 452 OFFCURVE",
"437 537 CURVE"
);
},
{
closed = 1;
nodes = (
"257 139 LINE",
"318 94 LINE",
"383 181 LINE",
"448 94 LINE",
"510 139 LINE",
"430 242 LINE",
"336 242 LINE"
);
}
);
width = 757;
}
);
unicode = 2137;
},
{
glyphname = northWestArrowToCorner;
lastChange = "2020-11-14 14:27:34 +0000";
layers = (
{
layerId = "C43C9FC1-AECF-4743-B430-3C79B4516925";
paths = (
{
closed = 1;
nodes = (
"119 184 LINE",
"119 707 LINE",
"621 707 LINE",
"621 750 LINE",
"76 750 LINE",
"76 184 LINE"
);
},
{
closed = 1;
nodes = (
"301 316 LINE",
"301 524 LINE",
"501 524 LINE",
"501 600 LINE",
"224 600 LINE",
"224 316 LINE"
);
},
{
closed = 1;
nodes = (
"241 524 LINE",
"633 133 LINE",
"692 192 LINE",
"301 583 LINE"
);
}
);
width = 771;
}
);
unicode = 21F1;
},
{
glyphname = blackstar;
layers = (
{
layerId = "C43C9FC1-AECF-4743-B430-3C79B4516925";
paths = (
{
closed = 1;
nodes = (
"411 108 LINE",
"674 -53 LINE",
"600 245 LINE",
"834 443 LINE",
"529 466 LINE",
"412 750 LINE",
"294 466 LINE",
"-10 443 LINE",
"222 245 LINE",
"151 -53 LINE"
);
}
);
width = 824;
}
);
rightMetricsKey = "=|";
unicode = 2605;
},
{
glyphname = ballotBox;
lastChange = "2020-11-14 14:24:35 +0000";
layers = (
{
layerId = "C43C9FC1-AECF-4743-B430-3C79B4516925";
paths = (
{
closed = 1;
nodes = (
"60 0 LINE",
"664 0 LINE",
"664 604 LINE",
"60 604 LINE"
);
},
{
closed = 1;
nodes = (
"601 543 LINE",
"601 61 LINE",
"123 61 LINE",
"123 543 LINE"
);
}
);
width = 724;
}
);
rightMetricsKey = "=|";
unicode = 2610;
},
{
glyphname = ballotBoxWithCheck;
lastChange = "2020-11-14 14:24:35 +0000";
layers = (
{
layerId = "C43C9FC1-AECF-4743-B430-3C79B4516925";
paths = (
{
closed = 1;
nodes = (
"370 127 LINE",
"528 477 LINE",
"464 477 LINE",
"332 198 LINE",
"232 356 LINE",
"179 322 LINE",
"303 127 LINE"
);
},
{
closed = 1;
nodes = (
"60 0 LINE",
"664 0 LINE",
"664 604 LINE",
"60 604 LINE"
);
},
{
closed = 1;
nodes = (
"601 543 LINE",
"601 61 LINE",
"123 61 LINE",
"123 543 LINE"
);
}
);
width = 724;
}
);
leftMetricsKey = ballotBox;
rightMetricsKey = ballotBox;
unicode = 2611;
},
{
glyphname = ballotBoxWithX;
lastChange = "2020-11-14 14:24:35 +0000";
layers = (
{
layerId = "C43C9FC1-AECF-4743-B430-3C79B4516925";
paths = (
{
closed = 1;
nodes = (
"241 137 LINE",
"524 420 LINE",
"482 461 LINE",
"200 179 LINE"
);
},
{
closed = 1;
nodes = (
"200 420 LINE",
"482 137 LINE",
"524 179 LINE",
"241 461 LINE"
);
},
{
closed = 1;
nodes = (
"60 0 LINE",
"664 0 LINE",
"664 604 LINE",
"60 604 LINE"
);
},
{
closed = 1;
nodes = (
"601 543 LINE",
"601 61 LINE",
"123 61 LINE",
"123 543 LINE"
);
}
);
width = 724;
}
);
leftMetricsKey = ballotBox;
rightMetricsKey = ballotBox;
unicode = 2612;
},
{
glyphname = peace;
lastChange = "2020-11-19 07:44:30 +0000";
layers = (
{
layerId = "C43C9FC1-AECF-4743-B430-3C79B4516925";
paths = (
{
closed = 1;
nodes = (
"372 23 LINE",
"438 23 LINE",
"438 647 LINE",
"372 647 LINE"
);
},
{
closed = 1;
nodes = (
"405 399 LINE",
"128 185 LINE",
"167 138 LINE",
"405 323 LINE",
"643 138 LINE",
"682 185 LINE"
);
},
{
closed = 1;
nodes = (
"601 -5 OFFCURVE",
"757 149 OFFCURVE",
"757 349 CURVE SMOOTH",
"757 549 OFFCURVE",
"601 703 OFFCURVE",
"402 703 CURVE SMOOTH",
"204 703 OFFCURVE",
"48 549 OFFCURVE",
"48 349 CURVE SMOOTH",
"48 149 OFFCURVE",
"204 -5 OFFCURVE",
"402 -5 CURVE SMOOTH"
);
},
{
closed = 1;
nodes = (
"241 58 OFFCURVE",
"113 187 OFFCURVE",
"113 349 CURVE SMOOTH",
"113 511 OFFCURVE",
"241 640 OFFCURVE",
"402 640 CURVE SMOOTH",
"565 640 OFFCURVE",
"692 511 OFFCURVE",
"692 349 CURVE SMOOTH",
"692 187 OFFCURVE",
"565 58 OFFCURVE",
"402 58 CURVE SMOOTH"
);
}
);
width = 805;
}
);
leftKerningGroup = circle;
note = peace;
rightKerningGroup = circle;
unicode = 262E;
},
{
glyphname = yinyang;
lastChange = "2020-11-19 07:44:30 +0000";
layers = (
{
layerId = "C43C9FC1-AECF-4743-B430-3C79B4516925";
paths = (
{
closed = 1;
nodes = (
"428 441 OFFCURVE",
"398 368 CURVE SMOOTH",
"372 305 OFFCURVE",
"344 239 OFFCURVE",
"246 239 CURVE SMOOTH",
"197 239 OFFCURVE",
"118 260 OFFCURVE",
"113 358 CURVE",
"97 192 OFFCURVE",
"234 53 OFFCURVE",
"402 53 CURVE SMOOTH",
"562 53 OFFCURVE",
"693 178 OFFCURVE",
"693 337 CURVE",
"686 421 OFFCURVE",
"628 476 OFFCURVE",
"544 476 CURVE SMOOTH",
"476 477 OFFCURVE"
);
},
{
closed = 1;
nodes = (
"601 -5 OFFCURVE",
"757 149 OFFCURVE",
"757 349 CURVE SMOOTH",
"757 549 OFFCURVE",
"601 703 OFFCURVE",
"402 703 CURVE SMOOTH",
"204 703 OFFCURVE",
"48 549 OFFCURVE",
"48 349 CURVE SMOOTH",
"48 149 OFFCURVE",
"204 -5 OFFCURVE",
"402 -5 CURVE SMOOTH"
);
},
{
closed = 1;
nodes = (
"241 58 OFFCURVE",
"113 187 OFFCURVE",
"113 349 CURVE SMOOTH",
"113 511 OFFCURVE",
"241 640 OFFCURVE",
"402 640 CURVE SMOOTH",
"565 640 OFFCURVE",
"692 511 OFFCURVE",
"692 349 CURVE SMOOTH",
"692 187 OFFCURVE",
"565 58 OFFCURVE",
"402 58 CURVE SMOOTH"
);
}
);
width = 805;
}
);
leftKerningGroup = circle;
note = yinyang;
rightKerningGroup = circle;
unicode = 262F;
},
{
glyphname = whiteSmilingFace;
lastChange = "2020-11-19 07:44:30 +0000";
layers = (
{
layerId = "C43C9FC1-AECF-4743-B430-3C79B4516925";
paths = (
{
closed = 1;
nodes = (
"549 327 LINE",
"549 251 OFFCURVE",
"486 191 OFFCURVE",
"405 191 CURVE SMOOTH",
"325 191 OFFCURVE",
"262 251 OFFCURVE",
"262 327 CURVE",
"204 327 LINE",
"204 220 OFFCURVE",
"292 136 OFFCURVE",
"405 136 CURVE SMOOTH",
"519 136 OFFCURVE",
"608 220 OFFCURVE",
"608 327 CURVE"
);
},
{
closed = 1;
nodes = (
"349 402 OFFCURVE",
"370 422 OFFCURVE",
"370 450 CURVE SMOOTH",
"370 478 OFFCURVE",
"348 499 OFFCURVE",
"322 499 CURVE SMOOTH",
"294 499 OFFCURVE",
"274 478 OFFCURVE",
"274 450 CURVE SMOOTH",
"274 422 OFFCURVE",
"294 402 OFFCURVE",
"322 402 CURVE SMOOTH"
);
},
{
closed = 1;
nodes = (
"517 402 OFFCURVE",
"538 422 OFFCURVE",
"538 450 CURVE SMOOTH",
"538 476 OFFCURVE",
"517 499 OFFCURVE",
"489 499 CURVE SMOOTH",
"464 499 OFFCURVE",
"441 476 OFFCURVE",
"441 450 CURVE SMOOTH",
"441 422 OFFCURVE",
"462 402 OFFCURVE",
"489 402 CURVE SMOOTH"
);
},
{
closed = 1;
nodes = (
"601 -5 OFFCURVE",
"757 149 OFFCURVE",
"757 349 CURVE SMOOTH",
"757 549 OFFCURVE",
"601 703 OFFCURVE",
"402 703 CURVE SMOOTH",
"204 703 OFFCURVE",
"48 549 OFFCURVE",
"48 349 CURVE SMOOTH",
"48 149 OFFCURVE",
"204 -5 OFFCURVE",
"402 -5 CURVE SMOOTH"
);
},
{
closed = 1;
nodes = (
"241 58 OFFCURVE",
"113 187 OFFCURVE",
"113 349 CURVE SMOOTH",
"113 511 OFFCURVE",
"241 640 OFFCURVE",
"402 640 CURVE SMOOTH",
"565 640 OFFCURVE",
"692 511 OFFCURVE",
"692 349 CURVE SMOOTH",
"692 187 OFFCURVE",
"565 58 OFFCURVE",
"402 58 CURVE SMOOTH"
);
}
);
width = 805;
}
);
leftKerningGroup = circle;
rightKerningGroup = circle;
unicode = 263A;
},
{
color = 3;
glyphname = mercury;
lastChange = "2020-11-19 07:33:35 +0000";
layers = (
{
layerId = "C43C9FC1-AECF-4743-B430-3C79B4516925";
paths = (
{
closed = 1;
nodes = (
"397 503 LINE",
"595 435 LINE",
"623 519 LINE",
"422 582 LINE",
"398 546 LINE"
);
},
{
closed = 1;
nodes = (
"358 535 LINE",
"355 323 LINE",
"444 323 LINE",
"441 535 LINE",
"400 547 LINE"
);
},
{
closed = 1;
nodes = (
"439 530 LINE",
"565 698 LINE",
"493 750 LINE",
"372 579 LINE",
"399 545 LINE"
);
},
{
closed = 1;
nodes = (
"376 582 LINE",
"177 520 LINE",
"204 436 LINE",
"402 503 LINE",
"401 546 LINE"
);
},
{
closed = 1;
nodes = (
"427 579 LINE",
"304 749 LINE",
"232 697 LINE",
"360 530 LINE",
"400 545 LINE"
);
},
{
closed = 1;
nodes = (
"533 -102 OFFCURVE",
"635 0 OFFCURVE",
"635 129 CURVE SMOOTH",
"635 259 OFFCURVE",
"532 361 OFFCURVE",
"400 361 CURVE SMOOTH",
"269 361 OFFCURVE",
"166 259 OFFCURVE",
"166 129 CURVE SMOOTH",
"166 0 OFFCURVE",
"269 -102 OFFCURVE",
"400 -102 CURVE SMOOTH"
);
},
{
closed = 1;
nodes = (
"321 -11 OFFCURVE",
"261 50 OFFCURVE",
"262 129 CURVE SMOOTH",
"262 208 OFFCURVE",
"323 269 OFFCURVE",
"400 269 CURVE SMOOTH",
"477 269 OFFCURVE",
"539 208 OFFCURVE",
"539 129 CURVE SMOOTH",
"539 50 OFFCURVE",
"477 -11 OFFCURVE",
"400 -11 CURVE SMOOTH"
);
}
);
width = 800;
},
{
associatedMasterId = "C43C9FC1-AECF-4743-B430-3C79B4516925";
components = (
{
name = asterisk;
transform = "{0.94232, 0, 0, -0.94232, 136, 1001}";
}
);
layerId = "91A418FC-6074-4685-A77A-E8BD1CFCC38C";
name = Bold;
paths = (
{
closed = 1;
nodes = (
"262 377 OFFCURVE",
"153 270 OFFCURVE",
"153 134 CURVE SMOOTH",
"153 -3 OFFCURVE",
"262 -110 OFFCURVE",
"400 -110 CURVE SMOOTH",
"539 -110 OFFCURVE",
"648 -3 OFFCURVE",
"648 134 CURVE SMOOTH",
"648 270 OFFCURVE",
"539 377 OFFCURVE",
"400 377 CURVE SMOOTH"
);
},
{
closed = 1;
nodes = (
"460 244 OFFCURVE",
"508 196 OFFCURVE",
"508 134 CURVE SMOOTH",
"508 72 OFFCURVE",
"460 24 OFFCURVE",
"400 24 CURVE SMOOTH",
"340 24 OFFCURVE",
"293 72 OFFCURVE",
"293 134 CURVE SMOOTH",
"292 196 OFFCURVE",
"339 244 OFFCURVE",
"400 244 CURVE SMOOTH"
);
}
);
width = 800;
},
{
associatedMasterId = "C43C9FC1-AECF-4743-B430-3C79B4516925";
components = (
{
name = asterisk;
transform = "{0.90573, 0, 0, -0.90573, 164, 1010}";
}
);
layerId = "8688D68E-D8DB-494B-A244-E1EA0CD36737";
name = Black;
paths = (
{
closed = 1;
nodes = (
"249 415 OFFCURVE",
"128 300 OFFCURVE",
"128 153 CURVE SMOOTH",
"128 6 OFFCURVE",
"249 -110 OFFCURVE",
"400 -110 CURVE SMOOTH",
"551 -110 OFFCURVE",
"673 6 OFFCURVE",
"673 153 CURVE SMOOTH",
"673 300 OFFCURVE",
"551 415 OFFCURVE",
"400 415 CURVE SMOOTH"
);
},
{
closed = 1;
nodes = (
"456 255 OFFCURVE",
"498 212 OFFCURVE",
"498 153 CURVE SMOOTH",
"498 94 OFFCURVE",
"456 51 OFFCURVE",
"400 51 CURVE SMOOTH",
"345 51 OFFCURVE",
"303 94 OFFCURVE",
"303 153 CURVE SMOOTH",
"303 212 OFFCURVE",
"344 255 OFFCURVE",
"400 255 CURVE SMOOTH"
);
}
);
width = 800;
}
);
unicode = 263F;
},
{
color = 9;
glyphname = venus;
lastChange = "2020-11-19 07:31:52 +0000";
layers = (
{
layerId = "C43C9FC1-AECF-4743-B430-3C79B4516925";
paths = (
{
closed = 1;
nodes = (
"284 703 OFFCURVE",
"107 526 OFFCURVE",
"107 310 CURVE SMOOTH",
"107 94 OFFCURVE",
"284 -83 OFFCURVE",
"500 -83 CURVE SMOOTH",
"716 -83 OFFCURVE",
"893 94 OFFCURVE",
"893 310 CURVE SMOOTH",
"893 526 OFFCURVE",
"716 703 OFFCURVE",
"500 703 CURVE SMOOTH"
);
},
{
closed = 1;
nodes = (
"308 300 OFFCURVE",
"296 280 OFFCURVE",
"296 253 CURVE SMOOTH",
"296 226 OFFCURVE",
"308 207 OFFCURVE",
"327 207 CURVE SMOOTH",
"346 207 OFFCURVE",
"358 226 OFFCURVE",
"358 253 CURVE SMOOTH",
"358 280 OFFCURVE",
"346 300 OFFCURVE",
"327 300 CURVE SMOOTH"
);
},
{
closed = 1;
nodes = (
"800 375 OFFCURVE",
"687 416 OFFCURVE",
"599 522 CURVE SMOOTH",
"585 537 OFFCURVE",
"570 537 OFFCURVE",
"551 522 CURVE SMOOTH",
"424 411 OFFCURVE",
"218 378 OFFCURVE",
"140 380 CURVE",
"140 334 LINE",
"223 333 OFFCURVE",
"432 355 OFFCURVE",
"582 484 CURVE",
"566 485 LINE",
"671 360 OFFCURVE",
"797 330 OFFCURVE",
"853 330 CURVE",
"853 375 LINE"
);
},
{
closed = 1;
nodes = (
"687 655 OFFCURVE",
"844 497 OFFCURVE",
"844 310 CURVE SMOOTH",
"844 123 OFFCURVE",
"687 -35 OFFCURVE",
"500 -35 CURVE SMOOTH",
"313 -35 OFFCURVE",
"156 123 OFFCURVE",
"156 310 CURVE SMOOTH",
"156 497 OFFCURVE",
"313 655 OFFCURVE",
"500 655 CURVE SMOOTH"
);
},
{
closed = 1;
nodes = (
"619 143 OFFCURVE",
"606 144 OFFCURVE",
"594 133 CURVE SMOOTH",
"567 109 OFFCURVE",
"531 99 OFFCURVE",
"500 99 CURVE SMOOTH",
"469 99 OFFCURVE",
"433 109 OFFCURVE",
"406 133 CURVE SMOOTH",
"394 144 OFFCURVE",
"381 143 OFFCURVE",
"373 135 CURVE SMOOTH",
"365 126 OFFCURVE",
"363 112 OFFCURVE",
"378 99 CURVE SMOOTH",
"415 65 OFFCURVE",
"459 53 OFFCURVE",
"500 53 CURVE SMOOTH",
"541 53 OFFCURVE",
"585 65 OFFCURVE",
"622 99 CURVE SMOOTH",
"637 112 OFFCURVE",
"635 126 OFFCURVE",
"627 135 CURVE SMOOTH"
);
},
{
closed = 1;
nodes = (
"654 300 OFFCURVE",
"642 280 OFFCURVE",
"642 253 CURVE SMOOTH",
"642 226 OFFCURVE",
"654 207 OFFCURVE",
"674 207 CURVE SMOOTH",
"692 207 OFFCURVE",
"704 226 OFFCURVE",
"704 253 CURVE SMOOTH",
"704 280 OFFCURVE",
"692 300 OFFCURVE",
"674 300 CURVE SMOOTH"
);
},
{
closed = 1;
nodes = (
"805 -46 OFFCURVE",
"947 -37 OFFCURVE",
"1000 2 CURVE SMOOTH",
"1014 12 OFFCURVE",
"1010 31 OFFCURVE",
"996 41 CURVE SMOOTH",
"914 96 OFFCURVE",
"893 219 OFFCURVE",
"893 310 CURVE",
"858 270 LINE",
"858 163 OFFCURVE",
"888 64 OFFCURVE",
"949 28 CURVE",
"957 42 LINE",
"909 4 OFFCURVE",
"809 9 OFFCURVE",
"737 27 CURVE",
"708 -18 LINE"
);
},
{
closed = 1;
nodes = (
"263 27 LINE",
"191 9 OFFCURVE",
"91 4 OFFCURVE",
"43 42 CURVE",
"51 28 LINE",
"112 64 OFFCURVE",
"142 163 OFFCURVE",
"142 270 CURVE",
"107 310 LINE",
"107 219 OFFCURVE",
"86 96 OFFCURVE",
"4 41 CURVE SMOOTH",
"-10 31 OFFCURVE",
"-14 12 OFFCURVE",
"0 2 CURVE SMOOTH",
"53 -37 OFFCURVE",
"195 -46 OFFCURVE",
"292 -18 CURVE"
);
}
);
width = 1000;
}
);
rightMetricsKey = "=|";
unicode = 2640;
},
{
color = 9;
glyphname = mars;
lastChange = "2020-11-19 07:31:52 +0000";
layers = (
{
layerId = "C43C9FC1-AECF-4743-B430-3C79B4516925";
paths = (
{
closed = 1;
nodes = (
"284 703 OFFCURVE",
"107 526 OFFCURVE",
"107 310 CURVE SMOOTH",
"107 94 OFFCURVE",
"284 -83 OFFCURVE",
"500 -83 CURVE SMOOTH",
"716 -83 OFFCURVE",
"893 94 OFFCURVE",
"893 310 CURVE SMOOTH",
"893 526 OFFCURVE",
"716 703 OFFCURVE",
"500 703 CURVE SMOOTH"
);
},
{
closed = 1;
nodes = (
"308 300 OFFCURVE",
"296 280 OFFCURVE",
"296 253 CURVE SMOOTH",
"296 226 OFFCURVE",
"308 207 OFFCURVE",
"327 207 CURVE SMOOTH",
"346 207 OFFCURVE",
"358 226 OFFCURVE",
"358 253 CURVE SMOOTH",
"358 280 OFFCURVE",
"346 300 OFFCURVE",
"327 300 CURVE SMOOTH"
);
},
{
closed = 1;
nodes = (
"800 375 OFFCURVE",
"687 416 OFFCURVE",
"599 522 CURVE SMOOTH",
"585 537 OFFCURVE",
"570 537 OFFCURVE",
"551 522 CURVE SMOOTH",
"424 411 OFFCURVE",
"218 378 OFFCURVE",
"140 380 CURVE",
"140 334 LINE",
"223 333 OFFCURVE",
"432 355 OFFCURVE",
"582 484 CURVE",
"566 485 LINE",
"671 360 OFFCURVE",
"797 330 OFFCURVE",
"853 330 CURVE",
"853 375 LINE"
);
},
{
closed = 1;
nodes = (
"688 655 OFFCURVE",
"844 498 OFFCURVE",
"844 310 CURVE SMOOTH",
"844 122 OFFCURVE",
"688 -35 OFFCURVE",
"500 -35 CURVE SMOOTH",
"312 -35 OFFCURVE",
"156 122 OFFCURVE",
"156 310 CURVE SMOOTH",
"156 498 OFFCURVE",
"312 655 OFFCURVE",
"500 655 CURVE SMOOTH"
);
},
{
closed = 1;
nodes = (
"619 143 OFFCURVE",
"606 144 OFFCURVE",
"594 133 CURVE SMOOTH",
"567 109 OFFCURVE",
"531 99 OFFCURVE",
"500 99 CURVE SMOOTH",
"469 99 OFFCURVE",
"433 109 OFFCURVE",
"406 133 CURVE SMOOTH",
"394 144 OFFCURVE",
"381 143 OFFCURVE",
"373 135 CURVE SMOOTH",
"365 126 OFFCURVE",
"363 112 OFFCURVE",
"378 99 CURVE SMOOTH",
"415 65 OFFCURVE",
"459 53 OFFCURVE",
"500 53 CURVE SMOOTH",
"541 53 OFFCURVE",
"585 65 OFFCURVE",
"622 99 CURVE SMOOTH",
"637 112 OFFCURVE",
"635 126 OFFCURVE",
"627 135 CURVE SMOOTH"
);
},
{
closed = 1;
nodes = (
"654 300 OFFCURVE",
"642 280 OFFCURVE",
"642 253 CURVE SMOOTH",
"642 226 OFFCURVE",
"654 207 OFFCURVE",
"674 207 CURVE SMOOTH",
"692 207 OFFCURVE",
"704 226 OFFCURVE",
"704 253 CURVE SMOOTH",
"704 280 OFFCURVE",
"692 300 OFFCURVE",
"674 300 CURVE SMOOTH"
);
}
);
width = 1000;
}
);
rightMetricsKey = "=|";
unicode = 2642;
},
{
glyphname = heartWhiteSuit;
lastChange = "2020-11-15 15:27:35 +0000";
layers = (
{
layerId = "C43C9FC1-AECF-4743-B430-3C79B4516925";
paths = (
{
closed = 1;
nodes = (
"485 645 OFFCURVE",
"445 610 OFFCURVE",
"395 557 CURVE",
"345 610 OFFCURVE",
"303 645 OFFCURVE",
"225 645 CURVE SMOOTH",
"116 645 OFFCURVE",
"38 565 OFFCURVE",
"38 459 CURVE SMOOTH",
"38 398 OFFCURVE",
"65 342 OFFCURVE",
"121 281 CURVE SMOOTH",
"395 -15 LINE",
"668 281 LINE SMOOTH",
"724 342 OFFCURVE",
"751 398 OFFCURVE",
"751 459 CURVE SMOOTH",
"751 564 OFFCURVE",
"670 645 OFFCURVE",
"562 645 CURVE SMOOTH"
);
},
{
closed = 1;
nodes = (
"636 583 OFFCURVE",
"686 528 OFFCURVE",
"686 457 CURVE SMOOTH",
"686 413 OFFCURVE",
"668 374 OFFCURVE",
"627 330 CURVE SMOOTH",
"395 79 LINE",
"162 330 LINE SMOOTH",
"122 373 OFFCURVE",
"104 413 OFFCURVE",
"104 457 CURVE SMOOTH",
"104 528 OFFCURVE",
"154 583 OFFCURVE",
"227 583 CURVE SMOOTH",
"281 583 OFFCURVE",
"310 557 OFFCURVE",
"352 515 CURVE SMOOTH",
"395 470 LINE",
"438 515 LINE SMOOTH",
"478 555 OFFCURVE",
"506 583 OFFCURVE",
"561 583 CURVE SMOOTH"
);
}
);
width = 789;
}
);
note = heart;
rightMetricsKey = "=|";
unicode = 2661;
},
{
glyphname = heartBlackSuit;
layers = (
{
layerId = "C43C9FC1-AECF-4743-B430-3C79B4516925";
paths = (
{
closed = 1;
nodes = (
"482 648 OFFCURVE",
"442 611 OFFCURVE",
"393 562 CURVE",
"343 611 OFFCURVE",
"302 648 OFFCURVE",
"223 648 CURVE SMOOTH",
"117 648 OFFCURVE",
"40 566 OFFCURVE",
"40 461 CURVE SMOOTH",
"40 401 OFFCURVE",
"67 345 OFFCURVE",
"123 284 CURVE SMOOTH",
"393 -11 LINE",
"662 284 LINE SMOOTH",
"717 345 OFFCURVE",
"746 401 OFFCURVE",
"746 461 CURVE SMOOTH",
"746 565 OFFCURVE",
"666 648 OFFCURVE",
"559 648 CURVE SMOOTH"
);
}
);
width = 786;
}
);
note = heart;
rightMetricsKey = "=|";
unicode = 2665;
},
{
color = 9;
glyphname = maleAndFemaleSign;
lastChange = "2020-11-19 07:31:52 +0000";
layers = (
{
layerId = "C43C9FC1-AECF-4743-B430-3C79B4516925";
paths = (
{
closed = 1;
nodes = (
"56 587 LINE SMOOTH",
"56 576 OFFCURVE",
"61 571 OFFCURVE",
"72 571 CURVE SMOOTH",
"391 571 LINE SMOOTH",
"403 571 OFFCURVE",
"408 576 OFFCURVE",
"408 587 CURVE SMOOTH",
"408 684 LINE SMOOTH",
"408 696 OFFCURVE",
"403 701 OFFCURVE",
"391 701 CURVE SMOOTH",
"72 701 LINE SMOOTH",
"61 701 OFFCURVE",
"56 696 OFFCURVE",
"56 684 CURVE SMOOTH"
);
},
{
closed = 1;
nodes = (
"374 669 LINE",
"374 602 LINE",
"90 602 LINE",
"90 669 LINE"
);
},
{
closed = 1;
nodes = (
"56 408 LINE SMOOTH",
"56 396 OFFCURVE",
"61 391 OFFCURVE",
"72 391 CURVE SMOOTH",
"391 391 LINE SMOOTH",
"403 391 OFFCURVE",
"408 396 OFFCURVE",
"408 408 CURVE SMOOTH",
"408 504 LINE SMOOTH",
"408 516 OFFCURVE",
"403 521 OFFCURVE",
"391 521 CURVE SMOOTH",
"72 521 LINE SMOOTH",
"61 521 OFFCURVE",
"56 516 OFFCURVE",
"56 504 CURVE SMOOTH"
);
},
{
closed = 1;
nodes = (
"374 489 LINE",
"374 422 LINE",
"90 422 LINE",
"90 489 LINE"
);
},
{
closed = 1;
nodes = (
"131 321 OFFCURVE",
"38 228 OFFCURVE",
"38 114 CURVE SMOOTH",
"38 1 OFFCURVE",
"131 -93 OFFCURVE",
"245 -93 CURVE SMOOTH",
"358 -93 OFFCURVE",
"452 1 OFFCURVE",
"452 114 CURVE SMOOTH",
"452 228 OFFCURVE",
"358 321 OFFCURVE",
"245 321 CURVE SMOOTH"
);
},
{
closed = 1;
nodes = (
"143 112 OFFCURVE",
"136 102 OFFCURVE",
"136 83 CURVE SMOOTH",
"136 65 OFFCURVE",
"143 55 OFFCURVE",
"153 55 CURVE SMOOTH",
"163 55 OFFCURVE",
"170 65 OFFCURVE",
"170 83 CURVE SMOOTH",
"170 102 OFFCURVE",
"163 112 OFFCURVE",
"153 112 CURVE SMOOTH"
);
},
{
closed = 1;
nodes = (
"399 145 OFFCURVE",
"331 169 OFFCURVE",
"291 222 CURVE SMOOTH",
"282 235 OFFCURVE",
"271 237 OFFCURVE",
"260 228 CURVE SMOOTH",
"197 166 OFFCURVE",
"92 155 OFFCURVE",
"60 155 CURVE",
"60 119 LINE",
"95 119 OFFCURVE",
"199 124 OFFCURVE",
"276 193 CURVE",
"267 196 LINE",
"321 129 OFFCURVE",
"398 110 OFFCURVE",
"430 110 CURVE",
"430 145 LINE"
);
},
{
closed = 1;
nodes = (
"338 286 OFFCURVE",
"415 209 OFFCURVE",
"415 114 CURVE SMOOTH",
"415 20 OFFCURVE",
"338 -57 OFFCURVE",
"245 -57 CURVE SMOOTH",
"151 -57 OFFCURVE",
"74 20 OFFCURVE",
"74 114 CURVE SMOOTH",
"74 209 OFFCURVE",
"151 286 OFFCURVE",
"245 286 CURVE SMOOTH"
);
},
{
closed = 1;
nodes = (
"327 112 OFFCURVE",
"320 102 OFFCURVE",
"320 83 CURVE SMOOTH",
"320 65 OFFCURVE",
"327 55 OFFCURVE",
"337 55 CURVE SMOOTH",
"347 55 OFFCURVE",
"354 65 OFFCURVE",
"354 83 CURVE SMOOTH",
"354 102 OFFCURVE",
"347 112 OFFCURVE",
"337 112 CURVE SMOOTH"
);
},
{
closed = 1;
nodes = (
"305 28 OFFCURVE",
"296 27 OFFCURVE",
"288 21 CURVE SMOOTH",
"279 12 OFFCURVE",
"262 6 OFFCURVE",
"245 6 CURVE SMOOTH",
"227 6 OFFCURVE",
"210 12 OFFCURVE",
"201 21 CURVE SMOOTH",
"194 27 OFFCURVE",
"184 28 OFFCURVE",
"178 22 CURVE SMOOTH",
"170 13 OFFCURVE",
"173 3 OFFCURVE",
"181 -4 CURVE SMOOTH",
"193 -15 OFFCURVE",
"217 -26 OFFCURVE",
"245 -26 CURVE SMOOTH",
"273 -26 OFFCURVE",
"297 -15 OFFCURVE",
"308 -4 CURVE SMOOTH",
"317 3 OFFCURVE",
"320 13 OFFCURVE",
"311 22 CURVE SMOOTH"
);
},
{
closed = 1;
nodes = (
"774 274 OFFCURVE",
"751 254 OFFCURVE",
"722 226 CURVE",
"693 254 OFFCURVE",
"670 274 OFFCURVE",
"624 274 CURVE SMOOTH",
"564 274 OFFCURVE",
"518 227 OFFCURVE",
"518 168 CURVE SMOOTH",
"518 132 OFFCURVE",
"535 101 OFFCURVE",
"567 66 CURVE SMOOTH",
"722 -103 LINE",
"877 66 LINE SMOOTH",
"909 101 OFFCURVE",
"926 132 OFFCURVE",
"926 168 CURVE SMOOTH",
"926 227 OFFCURVE",
"880 274 OFFCURVE",
"820 274 CURVE SMOOTH"
);
},
{
closed = 1;
nodes = (
"593 96 LINE SMOOTH",
"571 118 OFFCURVE",
"558 141 OFFCURVE",
"558 166 CURVE SMOOTH",
"558 206 OFFCURVE",
"590 237 OFFCURVE",
"628 237 CURVE SMOOTH",
"660 237 OFFCURVE",
"673 222 OFFCURVE",
"696 200 CURVE SMOOTH",
"722 174 LINE",
"748 200 LINE SMOOTH",
"770 221 OFFCURVE",
"785 237 OFFCURVE",
"817 237 CURVE SMOOTH",
"854 237 OFFCURVE",
"886 206 OFFCURVE",
"886 166 CURVE SMOOTH",
"886 141 OFFCURVE",
"873 119 OFFCURVE",
"851 96 CURVE SMOOTH",
"722 -43 LINE"
);
},
{
closed = 1;
nodes = (
"608 735 OFFCURVE",
"514 642 OFFCURVE",
"514 528 CURVE SMOOTH",
"514 415 OFFCURVE",
"608 321 OFFCURVE",
"721 321 CURVE SMOOTH",
"834 321 OFFCURVE",
"928 415 OFFCURVE",
"928 528 CURVE SMOOTH",
"928 642 OFFCURVE",
"834 735 OFFCURVE",
"721 735 CURVE SMOOTH"
);
},
{
closed = 1;
nodes = (
"619 526 OFFCURVE",
"612 516 OFFCURVE",
"612 497 CURVE SMOOTH",
"612 479 OFFCURVE",
"619 469 OFFCURVE",
"630 469 CURVE SMOOTH",
"639 469 OFFCURVE",
"646 479 OFFCURVE",
"646 497 CURVE SMOOTH",
"646 516 OFFCURVE",
"639 526 OFFCURVE",
"630 526 CURVE SMOOTH"
);
},
{
closed = 1;
nodes = (
"875 559 OFFCURVE",
"807 583 OFFCURVE",
"767 636 CURVE SMOOTH",
"759 649 OFFCURVE",
"747 651 OFFCURVE",
"737 642 CURVE SMOOTH",
"673 580 OFFCURVE",
"568 569 OFFCURVE",
"536 569 CURVE",
"536 533 LINE",
"571 533 OFFCURVE",
"675 538 OFFCURVE",
"752 607 CURVE",
"743 610 LINE",
"797 543 OFFCURVE",
"874 524 OFFCURVE",
"906 524 CURVE",
"906 559 LINE"
);
},
{
closed = 1;
nodes = (
"815 700 OFFCURVE",
"892 623 OFFCURVE",
"892 528 CURVE SMOOTH",
"892 434 OFFCURVE",
"815 357 OFFCURVE",
"721 357 CURVE SMOOTH",
"628 357 OFFCURVE",
"551 434 OFFCURVE",
"551 528 CURVE SMOOTH",
"551 623 OFFCURVE",
"628 700 OFFCURVE",
"721 700 CURVE SMOOTH"
);
},
{
closed = 1;
nodes = (
"803 526 OFFCURVE",
"796 516 OFFCURVE",
"796 497 CURVE SMOOTH",
"796 479 OFFCURVE",
"803 469 OFFCURVE",
"814 469 CURVE SMOOTH",
"823 469 OFFCURVE",
"830 479 OFFCURVE",
"830 497 CURVE SMOOTH",
"830 516 OFFCURVE",
"823 526 OFFCURVE",
"814 526 CURVE SMOOTH"
);
},
{
closed = 1;
nodes = (
"782 437 OFFCURVE",
"773 438 OFFCURVE",
"767 432 CURVE SMOOTH",
"756 423 OFFCURVE",
"742 416 OFFCURVE",
"722 416 CURVE SMOOTH",
"702 416 OFFCURVE",
"687 422 OFFCURVE",
"676 431 CURVE SMOOTH",
"670 437 OFFCURVE",
"661 438 OFFCURVE",
"656 432 CURVE SMOOTH",
"647 424 OFFCURVE",
"648 414 OFFCURVE",
"657 406 CURVE SMOOTH",
"672 392 OFFCURVE",
"695 384 OFFCURVE",
"721 384 CURVE SMOOTH",
"747 384 OFFCURVE",
"769 392 OFFCURVE",
"786 406 CURVE SMOOTH",
"794 414 OFFCURVE",
"795 423 OFFCURVE",
"789 430 CURVE SMOOTH"
);
},
{
closed = 1;
nodes = (
"886 343 OFFCURVE",
"947 344 OFFCURVE",
"974 358 CURVE SMOOTH",
"988 365 OFFCURVE",
"985 382 OFFCURVE",
"968 392 CURVE SMOOTH",
"942 406 OFFCURVE",
"928 480 OFFCURVE",
"928 528 CURVE",
"898 528 LINE",
"898 456 OFFCURVE",
"910 392 OFFCURVE",
"941 376 CURVE",
"950 390 LINE",
"932 377 OFFCURVE",
"877 379 OFFCURVE",
"852 391 CURVE",
"837 358 LINE"
);
},
{
closed = 1;
nodes = (
"590 391 LINE",
"565 379 OFFCURVE",
"504 378 OFFCURVE",
"489 391 CURVE",
"499 375 LINE",
"529 396 OFFCURVE",
"544 456 OFFCURVE",
"544 528 CURVE",
"514 528 LINE",
"514 480 OFFCURVE",
"501 406 OFFCURVE",
"470 390 CURVE SMOOTH",
"456 380 OFFCURVE",
"454 365 OFFCURVE",
"468 358 CURVE SMOOTH",
"495 344 OFFCURVE",
"556 343 OFFCURVE",
"606 358 CURVE"
);
}
);
width = 1000;
}
);
unicode = 26A5;
},
{
glyphname = heavyAsterisk;
lastChange = "2020-11-14 14:24:35 +0000";
layers = (
{
layerId = "C43C9FC1-AECF-4743-B430-3C79B4516925";
paths = (
{
closed = 1;
nodes = (
"318 0 LINE",
"413 0 LINE",
"413 700 LINE",
"318 700 LINE"
);
},
{
closed = 1;
nodes = (
"39 216 LINE",
"86 134 LINE",
"692 484 LINE",
"645 566 LINE"
);
},
{
closed = 1;
nodes = (
"645 134 LINE",
"692 216 LINE",
"86 566 LINE",
"39 484 LINE"
);
}
);
width = 731;
}
);
leftKerningGroup = heavyAsterisk;
note = asterisk;
rightKerningGroup = heavyAsterisk;
rightMetricsKey = "=|";
unicode = 2731;
},
{
color = 5;
glyphname = nullControl;
lastChange = "2020-11-14 14:27:24 +0000";
layers = (
{
layerId = "C43C9FC1-AECF-4743-B430-3C79B4516925";
paths = (
{
closed = 1;
nodes = (
"538 30 OFFCURVE",
"659 151 OFFCURVE",
"659 300 CURVE SMOOTH",
"659 449 OFFCURVE",
"538 570 OFFCURVE",
"389 570 CURVE SMOOTH",
"240 570 OFFCURVE",
"119 449 OFFCURVE",
"119 300 CURVE SMOOTH",
"119 151 OFFCURVE",
"240 30 OFFCURVE",
"389 30 CURVE SMOOTH"
);
},
{
closed = 1;
nodes = (
"275 92 OFFCURVE",
"181 186 OFFCURVE",
"182 300 CURVE SMOOTH",
"181 414 OFFCURVE",
"275 508 OFFCURVE",
"389 508 CURVE SMOOTH",
"503 508 OFFCURVE",
"597 414 OFFCURVE",
"596 300 CURVE SMOOTH",
"597 186 OFFCURVE",
"503 92 OFFCURVE",
"389 92 CURVE SMOOTH"
);
},
{
closed = 1;
nodes = (
"53 2 LINE",
"91 -36 LINE",
"725 598 LINE",
"687 636 LINE"
);
}
);
width = 778;
}
);
rightMetricsKey = "=|";
unicode = 2400;
},
{
color = 5;
glyphname = venus.ss01;
lastChange = "2020-11-14 14:25:43 +0000";
layers = (
{
layerId = "C43C9FC1-AECF-4743-B430-3C79B4516925";
paths = (
{
closed = 1;
nodes = (
"284 703 OFFCURVE",
"107 526 OFFCURVE",
"107 310 CURVE SMOOTH",
"107 94 OFFCURVE",
"284 -83 OFFCURVE",
"500 -83 CURVE SMOOTH",
"716 -83 OFFCURVE",
"893 94 OFFCURVE",
"893 310 CURVE SMOOTH",
"893 526 OFFCURVE",
"716 703 OFFCURVE",
"500 703 CURVE SMOOTH"
);
},
{
closed = 1;
nodes = (
"343 279 OFFCURVE",
"355 258 OFFCURVE",
"355 230 CURVE SMOOTH",
"355 201 OFFCURVE",
"343 181 OFFCURVE",
"323 181 CURVE SMOOTH",
"302 181 OFFCURVE",
"289 201 OFFCURVE",
"289 230 CURVE SMOOTH",
"289 258 OFFCURVE",
"302 279 OFFCURVE",
"323 279 CURVE SMOOTH"
);
},
{
closed = 1;
nodes = (
"632 99 OFFCURVE",
"635 82 OFFCURVE",
"618 67 CURVE SMOOTH",
"582 35 OFFCURVE",
"541 23 OFFCURVE",
"500 23 CURVE SMOOTH",
"459 23 OFFCURVE",
"418 35 OFFCURVE",
"382 67 CURVE SMOOTH",
"365 82 OFFCURVE",
"368 99 OFFCURVE",
"377 109 CURVE SMOOTH",
"386 118 OFFCURVE",
"402 120 OFFCURVE",
"416 107 CURVE SMOOTH",
"439 87 OFFCURVE",
"471 77 OFFCURVE",
"500 77 CURVE SMOOTH",
"529 77 OFFCURVE",
"561 87 OFFCURVE",
"584 107 CURVE SMOOTH",
"598 120 OFFCURVE",
"614 118 OFFCURVE",
"623 109 CURVE SMOOTH"
);
},
{
closed = 1;
nodes = (
"698 279 OFFCURVE",
"711 258 OFFCURVE",
"711 230 CURVE SMOOTH",
"711 201 OFFCURVE",
"698 181 OFFCURVE",
"678 181 CURVE SMOOTH",
"657 181 OFFCURVE",
"645 201 OFFCURVE",
"645 230 CURVE SMOOTH",
"645 258 OFFCURVE",
"657 279 OFFCURVE",
"678 279 CURVE SMOOTH"
);
},
{
closed = 1;
nodes = (
"803 -48 OFFCURVE",
"947 -37 OFFCURVE",
"996 -2 CURVE SMOOTH",
"1014 10 OFFCURVE",
"1009 32 OFFCURVE",
"992 44 CURVE SMOOTH",
"913 100 OFFCURVE",
"893 219 OFFCURVE",
"893 310 CURVE",
"852 261 LINE",
"852 160 OFFCURVE",
"879 63 OFFCURVE",
"936 29 CURVE",
"946 46 LINE",
"901 10 OFFCURVE",
"807 17 OFFCURVE",
"740 34 CURVE",
"705 -19 LINE"
);
},
{
closed = 1;
nodes = (
"260 34 LINE",
"193 17 OFFCURVE",
"99 10 OFFCURVE",
"54 46 CURVE",
"64 29 LINE",
"121 63 OFFCURVE",
"148 160 OFFCURVE",
"148 261 CURVE",
"107 310 LINE",
"107 219 OFFCURVE",
"87 100 OFFCURVE",
"8 44 CURVE SMOOTH",
"-9 32 OFFCURVE",
"-14 10 OFFCURVE",
"4 -2 CURVE SMOOTH",
"53 -37 OFFCURVE",
"197 -48 OFFCURVE",
"295 -19 CURVE"
);
},
{
closed = 1;
nodes = (
"847 361 OFFCURVE",
"849 343 OFFCURVE",
"848 325 CURVE",
"790 325 OFFCURVE",
"667 352 OFFCURVE",
"562 474 CURVE",
"581 473 LINE",
"431 347 OFFCURVE",
"222 329 OFFCURVE",
"142 331 CURVE",
"143 349 OFFCURVE",
"145 367 OFFCURVE",
"148 385 CURVE",
"218 383 OFFCURVE",
"422 414 OFFCURVE",
"545 518 CURVE SMOOTH",
"566 535 OFFCURVE",
"585 535 OFFCURVE",
"600 518 CURVE SMOOTH",
"685 419 OFFCURVE",
"793 379 OFFCURVE",
"843 379 CURVE"
);
}
);
width = 1000;
}
);
rightMetricsKey = "=|";
},
{
color = 5;
glyphname = mars.ss01;
lastChange = "2020-11-14 14:25:48 +0000";
layers = (
{
layerId = "C43C9FC1-AECF-4743-B430-3C79B4516925";
paths = (
{
closed = 1;
nodes = (
"284 703 OFFCURVE",
"107 526 OFFCURVE",
"107 310 CURVE SMOOTH",
"107 94 OFFCURVE",
"284 -83 OFFCURVE",
"500 -83 CURVE SMOOTH",
"716 -83 OFFCURVE",
"893 94 OFFCURVE",
"893 310 CURVE SMOOTH",
"893 526 OFFCURVE",
"716 703 OFFCURVE",
"500 703 CURVE SMOOTH"
);
},
{
closed = 1;
nodes = (
"343 279 OFFCURVE",
"355 258 OFFCURVE",
"355 230 CURVE SMOOTH",
"355 201 OFFCURVE",
"343 181 OFFCURVE",
"323 181 CURVE SMOOTH",
"302 181 OFFCURVE",
"289 201 OFFCURVE",
"289 230 CURVE SMOOTH",
"289 258 OFFCURVE",
"302 279 OFFCURVE",
"323 279 CURVE SMOOTH"
);
},
{
closed = 1;
nodes = (
"847 361 OFFCURVE",
"849 343 OFFCURVE",
"848 325 CURVE",
"790 325 OFFCURVE",
"667 352 OFFCURVE",
"562 474 CURVE",
"581 473 LINE",
"431 347 OFFCURVE",
"222 329 OFFCURVE",
"142 331 CURVE",
"143 349 OFFCURVE",
"145 367 OFFCURVE",
"148 385 CURVE",
"218 383 OFFCURVE",
"422 414 OFFCURVE",
"545 518 CURVE SMOOTH",
"566 535 OFFCURVE",
"585 535 OFFCURVE",
"600 518 CURVE SMOOTH",
"685 419 OFFCURVE",
"793 379 OFFCURVE",
"843 379 CURVE"
);
},
{
closed = 1;
nodes = (
"632 99 OFFCURVE",
"635 82 OFFCURVE",
"618 67 CURVE SMOOTH",
"582 35 OFFCURVE",
"541 23 OFFCURVE",
"500 23 CURVE SMOOTH",
"459 23 OFFCURVE",
"418 35 OFFCURVE",
"382 67 CURVE SMOOTH",
"365 82 OFFCURVE",
"368 99 OFFCURVE",
"377 109 CURVE SMOOTH",
"386 118 OFFCURVE",
"402 120 OFFCURVE",
"416 107 CURVE SMOOTH",
"439 87 OFFCURVE",
"471 77 OFFCURVE",
"500 77 CURVE SMOOTH",
"529 77 OFFCURVE",
"561 87 OFFCURVE",
"584 107 CURVE SMOOTH",
"598 120 OFFCURVE",
"614 118 OFFCURVE",
"623 109 CURVE SMOOTH"
);
},
{
closed = 1;
nodes = (
"698 279 OFFCURVE",
"711 258 OFFCURVE",
"711 230 CURVE SMOOTH",
"711 201 OFFCURVE",
"698 181 OFFCURVE",
"678 181 CURVE SMOOTH",
"657 181 OFFCURVE",
"645 201 OFFCURVE",
"645 230 CURVE SMOOTH",
"645 258 OFFCURVE",
"657 279 OFFCURVE",
"678 279 CURVE SMOOTH"
);
}
);
width = 1000;
}
);
rightMetricsKey = "=|";
},
{
color = 5;
glyphname = maleAndFemaleSign.ss01;
lastChange = "2020-11-19 07:32:15 +0000";
layers = (
{
layerId = "C43C9FC1-AECF-4743-B430-3C79B4516925";
paths = (
{
closed = 1;
nodes = (
"56 587 LINE SMOOTH",
"56 576 OFFCURVE",
"61 571 OFFCURVE",
"72 571 CURVE SMOOTH",
"391 571 LINE SMOOTH",
"403 571 OFFCURVE",
"408 576 OFFCURVE",
"408 587 CURVE SMOOTH",
"408 684 LINE SMOOTH",
"408 696 OFFCURVE",
"403 701 OFFCURVE",
"391 701 CURVE SMOOTH",
"72 701 LINE SMOOTH",
"61 701 OFFCURVE",
"56 696 OFFCURVE",
"56 684 CURVE SMOOTH"
);
},
{
closed = 1;
nodes = (
"56 408 LINE SMOOTH",
"56 396 OFFCURVE",
"61 391 OFFCURVE",
"72 391 CURVE SMOOTH",
"391 391 LINE SMOOTH",
"403 391 OFFCURVE",
"408 396 OFFCURVE",
"408 408 CURVE SMOOTH",
"408 504 LINE SMOOTH",
"408 516 OFFCURVE",
"403 521 OFFCURVE",
"391 521 CURVE SMOOTH",
"72 521 LINE SMOOTH",
"61 521 OFFCURVE",
"56 516 OFFCURVE",
"56 504 CURVE SMOOTH"
);
},
{
closed = 1;
nodes = (
"131 321 OFFCURVE",
"38 228 OFFCURVE",
"38 114 CURVE SMOOTH",
"38 1 OFFCURVE",
"131 -93 OFFCURVE",
"245 -93 CURVE SMOOTH",
"358 -93 OFFCURVE",
"452 1 OFFCURVE",
"452 114 CURVE SMOOTH",
"452 228 OFFCURVE",
"358 321 OFFCURVE",
"245 321 CURVE SMOOTH"
);
},
{
closed = 1;
nodes = (
"164 102 OFFCURVE",
"171 91 OFFCURVE",
"171 73 CURVE SMOOTH",
"171 55 OFFCURVE",
"164 45 OFFCURVE",
"153 45 CURVE SMOOTH",
"142 45 OFFCURVE",
"135 55 OFFCURVE",
"135 73 CURVE SMOOTH",
"135 91 OFFCURVE",
"142 102 OFFCURVE",
"153 102 CURVE SMOOTH"
);
},
{
closed = 1;
nodes = (
"430 110 LINE",
"398 110 OFFCURVE",
"321 129 OFFCURVE",
"267 196 CURVE",
"276 193 LINE",
"199 124 OFFCURVE",
"95 119 OFFCURVE",
"60 119 CURVE",
"60 155 LINE",
"92 155 OFFCURVE",
"197 166 OFFCURVE",
"260 228 CURVE SMOOTH",
"271 237 OFFCURVE",
"282 235 OFFCURVE",
"291 222 CURVE SMOOTH",
"331 169 OFFCURVE",
"399 145 OFFCURVE",
"430 145 CURVE"
);
},
{
closed = 1;
nodes = (
"348 102 OFFCURVE",
"355 91 OFFCURVE",
"355 73 CURVE SMOOTH",
"355 55 OFFCURVE",
"348 45 OFFCURVE",
"337 45 CURVE SMOOTH",
"326 45 OFFCURVE",
"319 55 OFFCURVE",
"319 73 CURVE SMOOTH",
"319 91 OFFCURVE",
"326 102 OFFCURVE",
"337 102 CURVE SMOOTH"
);
},
{
closed = 1;
nodes = (
"320 3 OFFCURVE",
"317 -7 OFFCURVE",
"308 -15 CURVE SMOOTH",
"297 -25 OFFCURVE",
"273 -37 OFFCURVE",
"245 -37 CURVE SMOOTH",
"217 -37 OFFCURVE",
"193 -25 OFFCURVE",
"181 -15 CURVE SMOOTH",
"173 -7 OFFCURVE",
"170 3 OFFCURVE",
"178 11 CURVE SMOOTH",
"184 18 OFFCURVE",
"194 16 OFFCURVE",
"201 10 CURVE SMOOTH",
"210 2 OFFCURVE",
"227 -4 OFFCURVE",
"245 -4 CURVE SMOOTH",
"262 -4 OFFCURVE",
"279 2 OFFCURVE",
"288 10 CURVE SMOOTH",
"296 16 OFFCURVE",
"305 18 OFFCURVE",
"311 11 CURVE SMOOTH"
);
},
{
closed = 1;
nodes = (
"774 274 OFFCURVE",
"751 254 OFFCURVE",
"722 226 CURVE",
"693 254 OFFCURVE",
"670 274 OFFCURVE",
"624 274 CURVE SMOOTH",
"564 274 OFFCURVE",
"518 227 OFFCURVE",
"518 168 CURVE SMOOTH",
"518 132 OFFCURVE",
"535 101 OFFCURVE",
"567 66 CURVE SMOOTH",
"722 -103 LINE",
"877 66 LINE SMOOTH",
"909 101 OFFCURVE",
"926 132 OFFCURVE",
"926 168 CURVE SMOOTH",
"926 227 OFFCURVE",
"880 274 OFFCURVE",
"820 274 CURVE SMOOTH"
);
},
{
closed = 1;
nodes = (
"608 735 OFFCURVE",
"514 642 OFFCURVE",
"514 528 CURVE SMOOTH",
"514 415 OFFCURVE",
"608 321 OFFCURVE",
"721 321 CURVE SMOOTH",
"834 321 OFFCURVE",
"928 415 OFFCURVE",
"928 528 CURVE SMOOTH",
"928 642 OFFCURVE",
"834 735 OFFCURVE",
"721 735 CURVE SMOOTH"
);
},
{
closed = 1;
nodes = (
"640 516 OFFCURVE",
"647 505 OFFCURVE",
"647 487 CURVE SMOOTH",
"647 469 OFFCURVE",
"640 458 OFFCURVE",
"630 458 CURVE SMOOTH",
"618 458 OFFCURVE",
"611 469 OFFCURVE",
"611 487 CURVE SMOOTH",
"611 505 OFFCURVE",
"618 516 OFFCURVE",
"630 516 CURVE SMOOTH"
);
},
{
closed = 1;
nodes = (
"906 524 LINE",
"874 524 OFFCURVE",
"797 543 OFFCURVE",
"743 610 CURVE",
"752 607 LINE",
"675 538 OFFCURVE",
"571 533 OFFCURVE",
"536 533 CURVE",
"536 569 LINE",
"568 569 OFFCURVE",
"673 580 OFFCURVE",
"737 642 CURVE SMOOTH",
"747 651 OFFCURVE",
"759 649 OFFCURVE",
"767 636 CURVE SMOOTH",
"807 583 OFFCURVE",
"875 559 OFFCURVE",
"906 559 CURVE"
);
},
{
closed = 1;
nodes = (
"824 516 OFFCURVE",
"831 505 OFFCURVE",
"831 487 CURVE SMOOTH",
"831 469 OFFCURVE",
"824 458 OFFCURVE",
"814 458 CURVE SMOOTH",
"802 458 OFFCURVE",
"795 469 OFFCURVE",
"795 487 CURVE SMOOTH",
"795 505 OFFCURVE",
"802 516 OFFCURVE",
"814 516 CURVE SMOOTH"
);
},
{
closed = 1;
nodes = (
"795 413 OFFCURVE",
"794 403 OFFCURVE",
"786 396 CURVE SMOOTH",
"769 382 OFFCURVE",
"747 373 OFFCURVE",
"721 373 CURVE SMOOTH",
"695 373 OFFCURVE",
"672 382 OFFCURVE",
"657 396 CURVE SMOOTH",
"648 403 OFFCURVE",
"647 414 OFFCURVE",
"656 422 CURVE SMOOTH",
"661 427 OFFCURVE",
"670 426 OFFCURVE",
"676 421 CURVE SMOOTH",
"687 412 OFFCURVE",
"702 405 OFFCURVE",
"722 405 CURVE SMOOTH",
"742 405 OFFCURVE",
"756 413 OFFCURVE",
"767 422 CURVE SMOOTH",
"773 427 OFFCURVE",
"782 426 OFFCURVE",
"789 420 CURVE SMOOTH"
);
},
{
closed = 1;
nodes = (
"886 343 OFFCURVE",
"947 344 OFFCURVE",
"974 358 CURVE SMOOTH",
"988 365 OFFCURVE",
"985 382 OFFCURVE",
"968 392 CURVE SMOOTH",
"942 406 OFFCURVE",
"928 480 OFFCURVE",
"928 528 CURVE",
"898 518 LINE",
"898 456 OFFCURVE",
"910 392 OFFCURVE",
"941 376 CURVE",
"950 390 LINE",
"932 377 OFFCURVE",
"877 379 OFFCURVE",
"852 391 CURVE",
"837 358 LINE"
);
},
{
closed = 1;
nodes = (
"590 391 LINE",
"565 379 OFFCURVE",
"504 378 OFFCURVE",
"489 391 CURVE",
"499 375 LINE",
"529 396 OFFCURVE",
"544 456 OFFCURVE",
"544 528 CURVE",
"514 528 LINE",
"514 480 OFFCURVE",
"501 406 OFFCURVE",
"470 390 CURVE SMOOTH",
"456 380 OFFCURVE",
"454 365 OFFCURVE",
"468 358 CURVE SMOOTH",
"495 344 OFFCURVE",
"556 343 OFFCURVE",
"606 358 CURVE"
);
}
);
width = 1000;
}
);
},
{
color = 3;
glyphname = venus.ss02;
lastChange = "2020-11-19 07:32:03 +0000";
layers = (
{
layerId = "C43C9FC1-AECF-4743-B430-3C79B4516925";
paths = (
{
closed = 1;
nodes = (
"533 268 OFFCURVE",
"635 370 OFFCURVE",
"635 499 CURVE SMOOTH",
"635 629 OFFCURVE",
"532 731 OFFCURVE",
"400 731 CURVE SMOOTH",
"269 731 OFFCURVE",
"166 629 OFFCURVE",
"166 499 CURVE SMOOTH",
"166 370 OFFCURVE",
"269 268 OFFCURVE",
"400 268 CURVE SMOOTH"
);
},
{
closed = 1;
nodes = (
"321 359 OFFCURVE",
"261 420 OFFCURVE",
"262 499 CURVE SMOOTH",
"262 578 OFFCURVE",
"323 639 OFFCURVE",
"400 639 CURVE SMOOTH",
"477 639 OFFCURVE",
"539 578 OFFCURVE",
"539 499 CURVE SMOOTH",
"539 420 OFFCURVE",
"477 359 OFFCURVE",
"400 359 CURVE SMOOTH"
);
},
{
closed = 1;
nodes = (
"355 -100 LINE",
"445 -100 LINE",
"445 290 LINE",
"355 290 LINE"
);
},
{
closed = 1;
nodes = (
"126 98 LINE",
"674 98 LINE",
"674 180 LINE",
"126 180 LINE"
);
}
);
width = 800;
}
);
rightMetricsKey = "=|";
},
{
color = 3;
glyphname = mars.ss02;
lastChange = "2020-11-19 07:32:03 +0000";
layers = (
{
layerId = "C43C9FC1-AECF-4743-B430-3C79B4516925";
paths = (
{
closed = 1;
nodes = (
"153 417 OFFCURVE",
"50 315 OFFCURVE",
"50 186 CURVE SMOOTH",
"50 56 OFFCURVE",
"153 -46 OFFCURVE",
"284 -46 CURVE SMOOTH",
"415 -46 OFFCURVE",
"519 56 OFFCURVE",
"519 186 CURVE SMOOTH",
"519 315 OFFCURVE",
"415 417 OFFCURVE",
"284 417 CURVE SMOOTH"
);
},
{
closed = 1;
nodes = (
"361 326 OFFCURVE",
"423 264 OFFCURVE",
"423 186 CURVE SMOOTH",
"423 107 OFFCURVE",
"361 45 OFFCURVE",
"284 45 CURVE SMOOTH",
"206 45 OFFCURVE",
"145 107 OFFCURVE",
"145 186 CURVE SMOOTH",
"144 264 OFFCURVE",
"205 326 OFFCURVE",
"284 326 CURVE SMOOTH"
);
},
{
closed = 1;
nodes = (
"463 301 LINE",
"702 539 LINE",
"638 602 LINE",
"401 365 LINE"
);
},
{
closed = 1;
nodes = (
"394 564 LINE",
"665 564 LINE",
"665 294 LINE",
"741 294 LINE",
"741 640 LINE",
"394 640 LINE"
);
}
);
width = 800;
}
);
},
{
color = 3;
glyphname = maleAndFemaleSign.ss02;
lastChange = "2020-11-19 07:32:03 +0000";
layers = (
{
layerId = "C43C9FC1-AECF-4743-B430-3C79B4516925";
paths = (
{
closed = 1;
nodes = (
"442 141 OFFCURVE",
"534 232 OFFCURVE",
"534 349 CURVE SMOOTH",
"534 466 OFFCURVE",
"442 558 OFFCURVE",
"323 558 CURVE SMOOTH",
"206 558 OFFCURVE",
"113 466 OFFCURVE",
"113 349 CURVE SMOOTH",
"113 232 OFFCURVE",
"206 141 OFFCURVE",
"323 141 CURVE SMOOTH"
);
},
{
closed = 1;
nodes = (
"538 -33 LINE",
"538 43 LINE",
"111 43 LINE",
"111 -33 LINE"
);
},
{
closed = 1;
nodes = (
"366 -187 LINE",
"366 177 LINE",
"283 177 LINE",
"283 -187 LINE"
);
},
{
closed = 1;
nodes = (
"254 227 OFFCURVE",
"200 281 OFFCURVE",
"201 349 CURVE SMOOTH",
"201 418 OFFCURVE",
"255 472 OFFCURVE",
"323 472 CURVE SMOOTH",
"393 472 OFFCURVE",
"446 418 OFFCURVE",
"446 349 CURVE SMOOTH",
"446 281 OFFCURVE",
"393 227 OFFCURVE",
"323 227 CURVE SMOOTH"
);
},
{
closed = 1;
nodes = (
"724 445 LINE",
"724 748 LINE",
"421 748 LINE",
"421 675 LINE",
"651 675 LINE",
"651 445 LINE"
);
},
{
closed = 1;
nodes = (
"687 650 LINE",
"627 711 LINE",
"426 510 LINE",
"485 449 LINE"
);
}
